<svg width="1305" height="576" viewBox="0 0 1305 576" fill="none" xmlns="http://www.w3.org/2000/svg">
<path d="M816.272 144.71V56.9809C816.272 47.5199 822.507 42.3594 830.463 42.3594C838.419 42.3594 844.655 47.5199 844.655 56.9809V69.0222H845.085C848.74 55.9058 855.836 42.3594 871.103 42.3594C880.994 42.3594 888.304 48.81 888.304 57.626C888.304 69.2372 880.563 73.3226 872.823 73.3226H867.232C854.546 73.3226 847.665 82.1386 847.665 108.156V144.71C847.665 153.096 844.225 160.407 831.968 160.407C819.712 160.407 816.272 153.096 816.272 144.71Z" fill="black"/>
<path d="M709.555 101.276C709.555 120.413 717.511 137.184 736.218 137.184C754.925 137.184 762.881 120.413 762.881 101.276C762.881 80.8484 754.495 65.5818 736.218 65.5818C717.941 65.5818 709.555 80.8484 709.555 101.276ZM678.162 101.276C678.162 68.1621 698.374 42.3594 736.218 42.3594C774.062 42.3594 794.274 68.1621 794.274 101.276C794.274 132.669 779.007 160.407 736.218 160.407C693.428 160.407 678.162 132.669 678.162 101.276Z" fill="black"/>
<path d="M611.48 132.455V65.7981H606.104C597.288 65.7981 593.633 62.3578 593.633 55.477C593.633 48.5963 597.288 45.1559 606.104 45.1559H611.48V26.0189C611.48 15.6978 617.715 10.3223 627.176 10.3223C636.637 10.3223 642.873 15.6978 642.873 26.0189V45.1559H652.334C661.58 45.1559 666.526 47.9512 666.526 55.477C666.526 63.0028 661.58 65.7981 652.334 65.7981H642.873V128.585C642.873 133.315 645.453 135.896 651.044 135.896H655.559C662.44 135.896 666.526 139.766 666.526 146.432C666.526 155.463 658.785 160.408 643.733 160.408C620.941 160.408 611.48 150.947 611.48 132.455Z" fill="black"/>
<path d="M498.312 101.276C498.312 120.413 506.268 137.184 524.975 137.184C543.682 137.184 551.638 120.413 551.638 101.276C551.638 80.8484 543.252 65.5818 524.975 65.5818C506.698 65.5818 498.312 80.8484 498.312 101.276ZM466.919 101.276C466.919 68.1621 487.131 42.3594 524.975 42.3594C562.819 42.3594 583.031 68.1621 583.031 101.276C583.031 132.669 567.765 160.407 524.975 160.407C482.186 160.407 466.919 132.669 466.919 101.276Z" fill="black"/>
<path d="M284 143.205V17.4168C284 3.22534 293.676 0 303.137 0H313.458C324.424 0 329.585 4.30045 333.24 16.1267L363.988 115.467H364.418L394.737 16.1267C398.392 4.30045 403.553 0 414.519 0H424.41C433.871 0 443.547 3.22534 443.547 17.4168V143.205C443.547 152.021 439.246 160.407 427.85 160.407C416.454 160.407 412.153 152.021 412.153 143.205V47.305H411.723L378.825 150.086C376.46 157.397 371.084 160.407 363.773 160.407C356.463 160.407 351.087 157.397 348.722 150.086L315.823 47.305H315.393V143.205C315.393 152.021 311.093 160.407 299.697 160.407C288.3 160.407 284 152.021 284 143.205Z" fill="black"/>
<path d="M107.544 53C116.633 53 124.069 60.436 124.069 69.5244C124.069 78.6128 116.633 86.0487 107.544 86.0487C98.4557 86.0487 91.0198 78.6128 91.0198 69.5244C91.0198 60.436 98.0426 53 107.544 53Z" fill="white"/>
<path d="M86.0623 511.964C78.6263 511.964 71.6035 509.899 64.5806 505.768C40.2072 492.135 24.9222 455.782 22.0304 406.622C19.9649 371.92 24.5091 331.849 36.0761 292.19C17.4862 273.6 5.09293 250.466 1.37495 226.506C-6.06102 180.238 17.0731 130.252 60.8627 96.7897C64.5806 93.8979 69.5379 94.7241 72.4297 98.4421C75.3215 102.16 74.4953 107.117 70.7773 110.009C31.5319 139.753 10.8765 183.543 17.4862 224.027C20.378 242.204 28.6401 259.142 41.8596 274.427C58.7971 227.332 86.4754 182.716 126.547 153.386C164.966 125.294 235.195 96.3766 264.939 124.468C281.463 140.166 286.42 175.694 277.332 214.939C267.004 259.968 236.434 314.498 181.491 331.436C143.898 343.003 99.2818 336.393 62.5151 313.259C57.9709 310.367 53.8398 307.475 50.1218 304.584C40.2072 339.285 36.4892 374.812 38.5548 405.382C41.0334 448.346 53.8398 480.568 72.8428 491.309C94.7376 504.115 119.111 483.46 163.314 442.562C209.169 400.838 271.961 343.416 366.15 309.541C540.482 247.161 692.093 293.843 825.941 335.154C963.919 377.704 1082.89 414.471 1205.17 338.045C1237.4 317.803 1265.9 290.538 1289.04 257.076C1291.51 253.358 1296.88 252.532 1300.6 255.01C1304.32 257.489 1305.15 262.86 1302.67 266.578C1277.88 301.692 1248.14 330.609 1213.85 352.091C1085.37 432.647 956.896 392.989 820.983 350.852C683.418 308.302 541.308 264.099 371.934 325.239C280.637 357.875 219.497 414.057 174.468 454.955C139.766 487.178 112.501 511.964 86.0623 511.964ZM54.666 287.233C59.6233 291.364 64.9937 295.495 70.7773 299.213C103.413 319.456 143.898 326.065 176.12 315.738C224.454 300.453 251.719 251.706 260.807 210.808C268.243 178.172 265.352 147.189 253.371 136.035C233.955 117.858 175.707 137.274 136.049 166.192C96.39 195.523 69.9511 240.139 54.666 287.233Z" fill="white"/>
<path d="M1061.01 481.963H991.214C991.214 498.249 1001.79 510.093 1019.77 510.093C1043.03 510.093 1043.03 494.865 1055.51 494.865C1062.91 494.865 1068.2 501.21 1068.2 506.92C1068.2 525.532 1038.38 534.204 1019.77 534.204C976.621 534.204 960.335 505.017 960.335 478.156C960.335 442.201 982.12 418.09 1018.71 418.09C1054.24 418.09 1074.55 443.258 1074.55 468.639C1074.55 479.214 1071.37 481.963 1061.01 481.963ZM991.214 464.197H1045.36C1043.67 450.027 1033.09 439.663 1019.34 439.663C1003.9 439.663 994.598 449.181 991.214 464.197Z" fill="black"/>
<path d="M835.691 518.764V433.529C835.691 424.223 839.921 418.09 849.651 418.09C859.38 418.09 863.61 424.223 863.61 433.529V437.548H864.033C872.704 426.127 883.914 418.09 901.468 418.09C920.08 418.09 940.384 427.396 940.384 458.698V518.764C940.384 527.013 937 534.204 924.945 534.204C912.889 534.204 909.505 527.013 909.505 518.764V464.832C909.505 452.353 903.372 443.47 890.047 443.47C879.261 443.47 866.571 452.353 866.571 467.793V518.764C866.571 527.013 863.187 534.204 851.131 534.204C839.075 534.204 835.691 527.013 835.691 518.764Z" fill="black"/>
<path fill-rule="evenodd" clip-rule="evenodd" d="M778.518 433.526V518.76C778.518 527.009 781.902 534.2 793.958 534.2C806.013 534.2 809.397 527.009 809.397 518.76V433.526C809.397 425.277 806.013 418.086 793.958 418.086C781.902 418.086 778.518 425.277 778.518 433.526Z" fill="black"/>
<path d="M719.653 518.764V391.863C719.653 381.711 725.787 376.424 735.093 376.424C744.399 376.424 750.533 381.711 750.533 391.863V518.764C750.533 528.916 744.399 534.204 735.093 534.204C725.787 534.204 719.653 528.916 719.653 518.764Z" fill="black"/>
<path d="M588.665 559.796V432.683C588.665 423.166 593.106 418.09 602.624 418.09C611.718 418.09 616.583 423.166 616.583 432.683V437.548H617.006C622.082 424.435 634.561 418.09 649.577 418.09C675.38 418.09 698.011 436.913 698.011 476.887C698.011 506.497 682.994 534.204 650.423 534.204C636.253 534.204 625.678 528.493 619.967 518.553H619.544V559.796C619.544 569.948 613.41 575.235 604.104 575.235C594.798 575.235 588.665 569.948 588.665 559.796ZM667.132 475.83C667.132 457.641 659.095 442.624 642.598 442.201C624.62 442.201 617.852 458.275 617.852 475.83C617.852 491.692 623.774 510.304 642.598 510.093C662.267 510.093 667.132 490.212 667.132 475.83Z" fill="black"/>
<path d="M531.492 518.764V391.863C531.492 381.711 537.625 376.424 546.931 376.424C556.237 376.424 562.371 381.711 562.371 391.863V518.764C562.371 528.916 556.237 534.204 546.931 534.204C537.625 534.204 531.492 528.916 531.492 518.764Z" fill="black"/>
<path d="M496.318 481.963H426.523C426.523 498.249 437.098 510.093 455.075 510.093C478.341 510.093 478.341 494.865 490.819 494.865C498.222 494.865 503.509 501.21 503.509 506.92C503.509 525.532 473.687 534.204 455.075 534.204C411.929 534.204 395.644 505.017 395.644 478.156C395.644 442.201 417.428 418.09 454.018 418.09C489.55 418.09 509.854 443.258 509.854 468.639C509.854 479.214 506.682 481.963 496.318 481.963ZM426.523 464.197H480.667C478.975 450.027 468.4 439.663 454.652 439.663C439.213 439.663 429.907 449.181 426.523 464.197Z" fill="black"/>
<path d="M271 518.764V391.863C271 381.711 277.134 376.424 286.44 376.424C295.746 376.424 301.879 381.711 301.879 391.863V434.375H302.302C308.436 426.338 319.222 418.09 336.777 418.09C355.389 418.09 375.693 427.396 375.693 458.698V518.764C375.693 527.013 372.309 534.204 360.253 534.204C348.198 534.204 344.814 527.013 344.814 518.764V464.831C344.814 452.353 338.68 443.47 325.356 443.47C314.569 443.47 301.879 452.353 301.879 467.792V518.764C301.879 527.013 298.495 534.204 286.44 534.204C274.384 534.204 271 527.013 271 518.764Z" fill="black"/>
<path d="M778.546 391.263C778.546 382.828 785.374 376 793.809 376C802.244 376 809.072 382.828 809.072 391.263C809.072 399.698 802.244 406.526 793.809 406.526C785.374 406.526 778.546 399.698 778.546 391.263Z" fill="white"/>
<path d="M1026.66 257.986C1026.66 232.818 1051.62 223.512 1072.98 223.512C1096.45 223.512 1120.14 232.818 1120.14 246.988C1120.14 254.179 1115.28 260.524 1107.24 260.524C1095.19 260.524 1094.76 246.354 1075.3 246.354C1064.52 246.354 1057.54 249.315 1057.54 255.871C1057.54 263.062 1064.52 264.754 1074.04 266.869L1086.94 269.83C1104.49 273.849 1125.43 281.252 1125.43 302.825C1125.43 327.993 1101.11 339.626 1077.84 339.626C1049.92 339.626 1026.66 327.147 1026.66 311.919C1026.66 305.151 1030.47 299.018 1039.14 299.018C1052.46 299.018 1053.73 318.053 1076.57 318.053C1087.57 318.053 1094.55 313.188 1094.55 306.843C1094.55 299.018 1087.78 297.749 1076.79 294.999L1058.6 290.558C1040.62 286.116 1026.66 278.714 1026.66 257.986Z" fill="black"/>
<path d="M835.72 324.186V238.951C835.72 229.645 841.22 223.512 850.314 223.512C859.409 223.512 864.908 229.645 864.908 238.951V242.97H865.331C873.368 230.703 886.904 223.512 902.555 223.512C913.13 223.512 926.454 228.376 932.165 242.97C940.837 230.914 951.835 223.512 968.543 223.512C989.905 223.512 1007.04 233.241 1007.04 260.947V324.186C1007.04 332.435 1003.65 339.626 991.597 339.626C979.541 339.626 976.157 332.435 976.157 324.186V268.773C976.157 257.775 971.293 248.892 959.237 248.892C947.393 248.892 936.818 258.409 936.818 272.791V324.186C936.818 332.435 933.434 339.626 921.378 339.626C909.323 339.626 905.939 332.435 905.939 324.186V268.773C905.939 257.775 901.074 248.892 889.019 248.892C877.175 248.892 866.6 258.409 866.6 272.791V324.186C866.6 332.435 863.216 339.626 851.16 339.626C839.104 339.626 835.72 332.435 835.72 324.186Z" fill="black"/>
<path fill-rule="evenodd" clip-rule="evenodd" d="M778.547 238.951V324.186C778.547 332.435 781.931 339.626 793.987 339.626C806.042 339.626 809.426 332.435 809.426 324.186V238.951C809.426 230.703 806.042 223.512 793.987 223.512C781.931 223.512 778.547 230.703 778.547 238.951Z" fill="black"/>
<path d="M750.137 255.237V307.055C750.137 319.956 753.309 322.917 753.309 327.782C753.309 334.761 746.753 339.626 739.35 339.626C726.026 339.626 721.584 331.166 721.161 321.648C709.105 334.973 695.146 339.626 678.861 339.626C661.306 339.626 643.963 327.57 643.963 308.112C643.963 282.521 663.421 275.33 687.109 272.58L705.933 270.465C713.336 269.619 719.258 267.927 719.258 259.044C719.258 250.161 710.163 246.354 699.799 246.354C676.957 246.354 676.323 263.274 664.056 263.274C656.23 263.274 650.943 257.775 650.943 251.43C650.943 239.163 668.286 223.512 700.011 223.512C729.621 223.512 750.137 233.029 750.137 255.237ZM719.258 296.903V284.847C715.874 288.02 709.528 289.077 705.933 289.712L694.723 291.404C681.822 293.307 674.842 297.326 674.842 306.632C674.842 313.611 681.399 319.322 691.974 319.322C708.894 319.322 719.258 308.324 719.258 296.903Z" fill="black"/>
<path d="M590.386 324.188V197.287C590.386 187.135 596.519 181.848 605.825 181.848C615.131 181.848 621.265 187.135 621.265 197.287V324.188C621.265 334.34 615.131 339.628 605.825 339.628C596.519 339.628 590.386 334.34 590.386 324.188Z" fill="black"/>
<path d="M435 260.736C435 217.801 460.38 181 509.448 181C549.211 181 570.995 205.957 570.995 220.762C570.995 230.491 565.708 236.413 555.344 236.413C535.252 236.413 541.174 208.918 509.448 208.918C487.664 208.918 469.686 227.742 469.686 260.736C469.686 288.443 480.684 312.554 510.717 312.554C538.001 312.554 537.367 283.367 554.075 283.367C562.535 283.367 570.995 288.231 570.995 296.691C570.995 318.687 544.346 340.472 510.717 340.472C463.13 340.472 435 313.188 435 260.736Z" fill="black"/>
<path d="M778.603 197.398C778.603 188.963 785.432 182.135 793.866 182.135C802.301 182.135 809.13 188.963 809.13 197.398C809.13 205.833 802.301 212.661 793.866 212.661C785.432 212.661 778.603 205.833 778.603 197.398Z" fill="white"/>
</svg>
