<svg width="1305" height="500" viewBox="0 0 1305 500" fill="none" xmlns="http://www.w3.org/2000/svg">
<path d="M108.459 40.2266C117.547 40.2266 124.983 47.6625 124.983 56.7509C124.983 65.8393 117.547 73.2753 108.459 73.2753C99.3703 73.2753 91.9343 65.8393 91.9343 56.7509C91.9343 47.6625 98.9572 40.2266 108.459 40.2266Z" fill="white"/>
<path d="M86.9769 499.19C79.5409 499.19 72.518 497.124 65.4952 492.993C41.1217 479.361 25.8367 443.007 22.945 393.847C20.8794 359.146 25.4236 319.074 36.9907 279.416C18.4008 260.826 6.00748 237.692 2.2895 213.732C-5.14647 167.463 17.9876 117.477 61.7772 84.0153C65.4952 81.1235 70.4525 81.9497 73.3443 85.6677C76.236 89.3857 75.4098 94.343 71.6918 97.2348C32.4465 126.979 11.791 170.768 18.4008 211.253C21.2925 229.43 29.5547 246.367 42.7742 261.652C59.7117 214.558 87.39 169.942 127.462 140.611C165.881 112.52 236.109 83.6022 265.853 111.694C282.377 127.392 287.335 162.919 278.246 202.164C267.919 247.193 237.349 301.724 182.405 318.661C144.812 330.228 100.196 323.619 63.4296 300.484C58.8854 297.593 54.7543 294.701 51.0364 291.809C41.1217 326.51 37.4038 362.038 39.4693 392.608C41.948 435.571 54.7544 467.794 73.7574 478.534C95.6521 491.341 120.026 470.685 164.228 429.788C210.083 388.064 272.876 330.641 367.065 296.766C541.397 234.387 693.008 281.068 826.855 322.379C964.834 364.929 1083.81 401.696 1206.09 325.271C1238.31 305.029 1266.82 277.763 1289.95 244.302C1292.43 240.584 1297.8 239.757 1301.52 242.236C1305.24 244.715 1306.06 250.085 1303.58 253.803C1278.8 288.917 1249.05 317.835 1214.76 339.317C1086.29 419.873 957.811 380.215 821.898 338.077C684.333 295.527 542.223 251.324 372.848 312.465C281.551 345.1 220.411 401.283 175.382 442.181C140.681 474.403 113.416 499.19 86.9769 499.19ZM55.5806 274.459C60.5379 278.59 65.9083 282.721 71.6918 286.439C104.327 306.681 144.812 313.291 177.035 302.963C225.368 287.678 252.634 238.931 261.722 198.033C269.158 165.398 266.266 134.415 254.286 123.261C234.87 105.084 176.622 124.5 136.963 153.418C97.3046 182.748 70.8656 227.364 55.5806 274.459Z" fill="white"/>
<path d="M731.134 448.896H664.86C664.86 464.36 674.902 475.606 691.972 475.606C714.064 475.606 714.064 461.147 725.913 461.147C732.942 461.147 737.963 467.172 737.963 472.594C737.963 490.267 709.646 498.501 691.972 498.501C651.003 498.501 635.539 470.786 635.539 445.281C635.539 411.14 656.225 388.245 690.968 388.245C724.708 388.245 743.988 412.144 743.988 436.244C743.988 446.285 740.975 448.896 731.134 448.896ZM664.86 432.026H716.273C714.666 418.571 704.625 408.73 691.571 408.73C676.91 408.73 668.074 417.767 664.86 432.026Z" fill="black"/>
<path d="M517.184 483.84V402.906C517.184 394.069 521.2 388.245 530.439 388.245C539.677 388.245 543.693 394.069 543.693 402.906V406.722H544.095C552.329 395.877 562.973 388.245 579.642 388.245C597.315 388.245 616.595 397.082 616.595 426.805V483.84C616.595 491.673 613.382 498.501 601.934 498.501C590.487 498.501 587.274 491.673 587.274 483.84V432.629C587.274 420.78 581.45 412.345 568.797 412.345C558.555 412.345 546.505 420.78 546.505 435.44V483.84C546.505 491.673 543.292 498.501 531.844 498.501C520.397 498.501 517.184 491.673 517.184 483.84Z" fill="black"/>
<path d="M462.895 483.839V402.904C462.895 395.071 466.109 388.243 477.556 388.243C489.003 388.243 492.216 395.071 492.216 402.904V483.839C492.216 491.671 489.003 498.499 477.556 498.499C466.109 498.499 462.895 491.671 462.895 483.839Z" fill="black"/>
<path d="M462.293 363.139C462.293 354.704 469.121 347.876 477.556 347.876C485.991 347.876 492.819 354.704 492.819 363.139C492.819 371.574 485.991 378.402 477.556 378.402C469.121 378.402 462.293 371.574 462.293 363.139Z" fill="white"/>
<path d="M407 483.84V363.341C407 353.701 412.824 348.681 421.661 348.681C430.497 348.681 436.321 353.701 436.321 363.341V483.84C436.321 493.479 430.497 498.5 421.661 498.5C412.824 498.5 407 493.479 407 483.84Z" fill="black"/>
<path d="M1124.57 298.454V236.196H1119.55C1111.32 236.196 1107.9 232.983 1107.9 226.556C1107.9 220.13 1111.32 216.916 1119.55 216.916H1124.57V199.042C1124.57 189.403 1130.4 184.382 1139.23 184.382C1148.07 184.382 1153.89 189.403 1153.89 199.042V216.916H1162.73C1171.37 216.916 1175.98 219.527 1175.98 226.556C1175.98 233.585 1171.37 236.196 1162.73 236.196H1153.89V294.839C1153.89 299.257 1156.3 301.667 1161.52 301.667H1165.74C1172.17 301.667 1175.98 305.282 1175.98 311.508C1175.98 319.942 1168.75 324.562 1154.7 324.562C1133.41 324.562 1124.57 315.725 1124.57 298.454Z" fill="black"/>
<path d="M994.167 309.902V228.967C994.167 220.131 998.184 214.307 1007.42 214.307C1016.66 214.307 1020.68 220.131 1020.68 228.967V232.783H1021.08C1029.31 221.938 1039.96 214.307 1056.63 214.307C1074.3 214.307 1093.58 223.143 1093.58 252.866V309.902C1093.58 317.734 1090.36 324.563 1078.92 324.563C1067.47 324.563 1064.26 317.734 1064.26 309.902V258.69C1064.26 246.841 1058.43 238.406 1045.78 238.406C1035.54 238.406 1023.49 246.841 1023.49 261.502V309.902C1023.49 317.734 1020.28 324.563 1008.83 324.563C997.38 324.563 994.167 317.734 994.167 309.902Z" fill="black"/>
<path d="M962.375 274.957H896.101C896.101 290.421 906.142 301.668 923.213 301.668C945.304 301.668 945.304 287.208 957.153 287.208C964.182 287.208 969.203 293.233 969.203 298.655C969.203 316.329 940.886 324.563 923.213 324.563C882.243 324.563 866.779 296.848 866.779 271.343C866.779 237.201 887.465 214.307 922.209 214.307C955.948 214.307 975.228 238.205 975.228 262.305C975.228 272.347 972.215 274.957 962.375 274.957ZM896.101 258.088H947.513C945.907 244.632 935.865 234.791 922.811 234.791C908.15 234.791 899.314 243.829 896.101 258.088Z" fill="black"/>
<path d="M847.835 189.404V310.705C847.835 319.743 843.618 324.563 834.58 324.563C825.945 324.563 821.326 319.743 821.326 310.705V306.086H820.924C816.104 318.538 804.255 324.563 789.996 324.563C765.495 324.563 744.006 306.689 744.006 268.732C744.006 240.616 758.265 214.307 789.193 214.307C802.247 214.307 812.288 219.729 818.112 229.168H818.514V189.404C818.514 179.764 824.338 174.743 833.175 174.743C842.011 174.743 847.835 179.764 847.835 189.404ZM773.327 269.736C773.327 287.007 780.959 301.266 796.623 301.668C813.694 301.668 820.121 286.405 820.121 269.736C820.121 254.674 814.497 237.001 796.623 237.201C777.946 237.201 773.327 256.08 773.327 269.736Z" fill="black"/>
<path d="M694.135 309.9V228.965C694.135 221.133 697.349 214.305 708.796 214.305C720.243 214.305 723.457 221.133 723.457 228.965V309.9C723.457 317.732 720.243 324.561 708.796 324.561C697.349 324.561 694.135 317.732 694.135 309.9Z" fill="black"/>
<path d="M693.533 189.202C693.533 180.767 700.361 173.938 708.796 173.938C717.231 173.938 724.059 180.767 724.059 189.202C724.059 197.636 717.231 204.465 708.796 204.465C700.361 204.465 693.533 197.636 693.533 189.202Z" fill="white"/>
<path d="M579.038 271.543C579.038 237.804 598.117 214.307 634.065 214.307C658.567 214.307 676.842 228.164 676.842 241.82C676.842 250.255 670.617 254.473 663.186 254.473C649.329 254.473 654.349 237.201 633.262 237.201C621.815 237.201 608.359 245.034 608.359 271.543C608.359 289.819 616.995 301.668 633.061 301.668C653.546 301.668 649.128 282.79 664.592 282.79C672.022 282.79 676.842 288.212 676.842 294.036C676.842 306.89 662.382 324.563 632.258 324.563C596.108 324.563 579.038 302.27 579.038 271.543Z" fill="black"/>
<path d="M471.17 271.543C471.17 237.804 490.249 214.307 526.197 214.307C550.699 214.307 568.974 228.164 568.974 241.82C568.974 250.255 562.749 254.473 555.318 254.473C541.461 254.473 546.481 237.201 525.394 237.201C513.947 237.201 500.491 245.034 500.491 271.543C500.491 289.819 509.127 301.668 525.193 301.668C545.678 301.668 541.26 282.79 556.724 282.79C564.154 282.79 568.974 288.212 568.974 294.036C568.974 306.89 554.515 324.563 524.39 324.563C488.241 324.563 471.17 302.27 471.17 271.543Z" fill="black"/>
<path d="M336.213 297.451L378.789 184.785C381.601 177.354 386.823 174.743 394.856 174.743H402.688C410.119 174.743 416.746 176.551 420.361 186.793L460.126 297.451C461.331 300.664 463.339 306.488 463.339 310.103C463.339 318.136 456.31 324.563 447.875 324.563C440.645 324.563 435.424 321.952 433.014 315.525L424.579 291.426H371.559L362.924 315.525C360.715 321.952 356.096 324.563 348.263 324.563C339.226 324.563 333 318.939 333 310.103C333 306.488 335.008 300.664 336.213 297.451ZM417.349 268.531L398.672 210.491H398.27L378.789 268.531H417.349Z" fill="black"/>
<path d="M849.319 135.963V54.0246C849.319 45.1881 855.144 40.3682 862.574 40.3682C870.005 40.3682 875.829 45.1881 875.829 54.0246V65.2711H876.231C879.645 53.0205 886.272 40.3682 900.531 40.3682C909.769 40.3682 916.598 46.3931 916.598 54.6271C916.598 65.472 909.368 69.2878 902.138 69.2878H896.916C885.067 69.2878 878.641 77.5218 878.641 101.822V135.963C878.641 143.796 875.427 150.624 863.98 150.624C852.533 150.624 849.319 143.796 849.319 135.963Z" fill="black"/>
<path d="M822.342 70.4927V119.696C822.342 131.947 825.355 134.759 825.355 139.378C825.355 146.005 819.129 150.624 812.1 150.624C799.448 150.624 795.23 142.591 794.829 133.554C783.381 146.206 770.126 150.624 754.662 150.624C737.993 150.624 721.525 139.177 721.525 120.7C721.525 96.3999 740.002 89.5716 762.495 86.9608L780.369 84.9525C787.398 84.1492 793.021 82.5426 793.021 74.1077C793.021 65.6728 784.385 62.0579 774.545 62.0579C752.855 62.0579 752.252 78.1243 740.604 78.1243C733.174 78.1243 728.153 72.9027 728.153 66.8778C728.153 55.2296 744.621 40.3682 774.745 40.3682C802.862 40.3682 822.342 49.4055 822.342 70.4927ZM793.021 110.056V98.609C789.808 101.621 783.783 102.626 780.369 103.228L769.725 104.835C757.474 106.642 750.847 110.458 750.847 119.295C750.847 125.922 757.072 131.344 767.114 131.344C783.18 131.344 793.021 120.901 793.021 110.056Z" fill="black"/>
<path d="M579 75.7131C579 34.9445 603.1 0 649.692 0C687.448 0 708.134 23.698 708.134 37.7561C708.134 46.9943 703.113 52.6176 693.273 52.6176C674.194 52.6176 679.817 26.5096 649.692 26.5096C629.007 26.5096 611.936 44.3836 611.936 75.7131C611.936 102.022 622.379 124.917 650.897 124.917C676.804 124.917 676.202 97.202 692.068 97.202C700.101 97.202 708.134 101.821 708.134 109.854C708.134 130.741 682.829 151.426 650.897 151.426C605.71 151.426 579 125.519 579 75.7131Z" fill="black"/>
</svg>
