<svg width="1305" height="500" viewBox="0 0 1305 500" fill="none" xmlns="http://www.w3.org/2000/svg">
<path d="M108.459 41C117.547 41 124.983 48.436 124.983 57.5244C124.983 66.6128 117.547 74.0487 108.459 74.0487C99.3703 74.0487 91.9343 66.6128 91.9343 57.5244C91.9343 48.436 98.9572 41 108.459 41Z" fill="#33E5F5"/>
<path d="M86.9769 499.963C79.5409 499.963 72.518 497.898 65.4952 493.767C41.1217 480.134 25.8367 443.781 22.945 394.621C20.8794 359.919 25.4236 319.848 36.9907 280.189C18.4008 261.599 6.00748 238.465 2.2895 214.505C-5.14647 168.237 17.9876 118.251 61.7772 84.7887C65.4952 81.8969 70.4525 82.7232 73.3443 86.4412C76.236 90.1591 75.4098 95.1164 71.6918 98.0082C32.4465 127.752 11.791 171.542 18.4008 212.026C21.2925 230.203 29.5547 247.141 42.7742 262.426C59.7117 215.331 87.39 170.715 127.462 141.385C165.881 113.293 236.109 84.3756 265.853 112.467C282.377 128.165 287.335 163.693 278.246 202.938C267.919 247.967 237.349 302.497 182.405 319.435C144.812 331.002 100.196 324.392 63.4296 301.258C58.8854 298.366 54.7543 295.474 51.0364 292.583C41.1217 327.284 37.4038 362.811 39.4693 393.381C41.948 436.345 54.7544 468.567 73.7574 479.308C95.6521 492.114 120.026 471.459 164.228 430.561C210.083 388.837 272.876 331.415 367.065 297.54C541.397 235.16 693.008 281.842 826.855 323.153C964.834 365.703 1083.81 402.47 1206.09 326.044C1238.31 305.802 1266.82 278.537 1289.95 245.075C1292.43 241.357 1297.8 240.531 1301.52 243.01C1305.24 245.488 1306.06 250.859 1303.58 254.577C1278.8 289.691 1249.05 318.608 1214.76 340.09C1086.29 420.646 957.811 380.988 821.898 338.851C684.333 296.301 542.223 252.098 372.848 313.238C281.551 345.874 220.411 402.057 175.382 442.954C140.681 475.177 113.416 499.963 86.9769 499.963ZM55.5806 275.232C60.5379 279.363 65.9083 283.494 71.6918 287.212C104.327 307.455 144.812 314.064 177.035 303.737C225.368 288.452 252.634 239.705 261.722 198.807C269.158 166.171 266.266 135.188 254.286 124.034C234.87 105.857 176.622 125.273 136.963 154.191C97.3046 183.522 70.8656 228.138 55.5806 275.232Z" fill="#33E5F5"/>
<path d="M731.134 449.669H664.86C664.86 465.133 674.902 476.38 691.972 476.38C714.064 476.38 714.064 461.92 725.913 461.92C732.942 461.92 737.963 467.945 737.963 473.367C737.963 491.04 709.646 499.275 691.972 499.275C651.003 499.275 635.539 471.56 635.539 446.054C635.539 411.913 656.225 389.019 690.968 389.019C724.708 389.019 743.988 412.917 743.988 437.017C743.988 447.059 740.975 449.669 731.134 449.669ZM664.86 432.8H716.273C714.666 419.344 704.625 409.503 691.571 409.503C676.91 409.503 668.074 418.541 664.86 432.8Z" fill="black"/>
<path d="M517.184 484.614V403.679C517.184 394.843 521.2 389.019 530.439 389.019C539.677 389.019 543.693 394.843 543.693 403.679V407.495H544.095C552.329 396.65 562.973 389.019 579.642 389.019C597.315 389.019 616.595 397.855 616.595 427.578V484.614C616.595 492.446 613.382 499.275 601.934 499.275C590.487 499.275 587.274 492.446 587.274 484.614V433.402C587.274 421.553 581.45 413.118 568.797 413.118C558.555 413.118 546.505 421.553 546.505 436.214V484.614C546.505 492.446 543.292 499.275 531.844 499.275C520.397 499.275 517.184 492.446 517.184 484.614Z" fill="black"/>
<path d="M462.895 484.612V403.677C462.895 395.845 466.109 389.017 477.556 389.017C489.003 389.017 492.216 395.845 492.216 403.677V484.612C492.216 492.444 489.003 499.273 477.556 499.273C466.109 499.273 462.895 492.444 462.895 484.612Z" fill="black"/>
<path d="M462.293 363.913C462.293 355.478 469.121 348.649 477.556 348.649C485.991 348.649 492.819 355.478 492.819 363.913C492.819 372.347 485.991 379.176 477.556 379.176C469.121 379.176 462.293 372.347 462.293 363.913Z" fill="#33E5F5"/>
<path d="M407 484.613V364.115C407 354.475 412.824 349.454 421.661 349.454C430.497 349.454 436.321 354.475 436.321 364.115V484.613C436.321 494.253 430.497 499.274 421.661 499.274C412.824 499.274 407 494.253 407 484.613Z" fill="black"/>
<path d="M1124.57 299.227V236.97H1119.55C1111.32 236.97 1107.9 233.756 1107.9 227.33C1107.9 220.903 1111.32 217.69 1119.55 217.69H1124.57V199.816C1124.57 190.176 1130.4 185.155 1139.23 185.155C1148.07 185.155 1153.89 190.176 1153.89 199.816V217.69H1162.73C1171.37 217.69 1175.98 220.301 1175.98 227.33C1175.98 234.359 1171.37 236.97 1162.73 236.97H1153.89V295.612C1153.89 300.03 1156.3 302.44 1161.52 302.44H1165.74C1172.17 302.44 1175.98 306.055 1175.98 312.281C1175.98 320.716 1168.75 325.335 1154.7 325.335C1133.41 325.335 1124.57 316.498 1124.57 299.227Z" fill="black"/>
<path d="M994.167 310.675V229.741C994.167 220.904 998.184 215.08 1007.42 215.08C1016.66 215.08 1020.68 220.904 1020.68 229.741V233.556H1021.08C1029.31 222.712 1039.96 215.08 1056.63 215.08C1074.3 215.08 1093.58 223.917 1093.58 253.64V310.675C1093.58 318.508 1090.36 325.336 1078.92 325.336C1067.47 325.336 1064.26 318.508 1064.26 310.675V259.464C1064.26 247.615 1058.43 239.18 1045.78 239.18C1035.54 239.18 1023.49 247.615 1023.49 262.275V310.675C1023.49 318.508 1020.28 325.336 1008.83 325.336C997.38 325.336 994.167 318.508 994.167 310.675Z" fill="black"/>
<path d="M962.375 275.731H896.101C896.101 291.195 906.142 302.441 923.213 302.441C945.304 302.441 945.304 287.982 957.153 287.982C964.182 287.982 969.203 294.006 969.203 299.429C969.203 317.102 940.886 325.336 923.213 325.336C882.243 325.336 866.779 297.621 866.779 272.116C866.779 237.975 887.465 215.08 922.209 215.08C955.948 215.08 975.228 238.979 975.228 263.079C975.228 273.12 972.215 275.731 962.375 275.731ZM896.101 258.861H947.513C945.907 245.405 935.865 235.565 922.811 235.565C908.15 235.565 899.314 244.602 896.101 258.861Z" fill="black"/>
<path d="M847.835 190.177V311.479C847.835 320.516 843.618 325.336 834.58 325.336C825.945 325.336 821.326 320.516 821.326 311.479V306.86H820.924C816.104 319.311 804.255 325.336 789.996 325.336C765.495 325.336 744.006 307.462 744.006 269.505C744.006 241.389 758.265 215.08 789.193 215.08C802.247 215.08 812.288 220.503 818.112 229.942H818.514V190.177C818.514 180.537 824.338 175.517 833.175 175.517C842.011 175.517 847.835 180.537 847.835 190.177ZM773.327 270.509C773.327 287.781 780.959 302.04 796.623 302.441C813.694 302.441 820.121 287.178 820.121 270.509C820.121 255.447 814.497 237.774 796.623 237.975C777.946 237.975 773.327 256.853 773.327 270.509Z" fill="black"/>
<path d="M694.135 310.673V229.739C694.135 221.906 697.349 215.078 708.796 215.078C720.243 215.078 723.457 221.906 723.457 229.739V310.673C723.457 318.506 720.243 325.334 708.796 325.334C697.349 325.334 694.135 318.506 694.135 310.673Z" fill="black"/>
<path d="M693.533 189.975C693.533 181.54 700.361 174.712 708.796 174.712C717.231 174.712 724.059 181.54 724.059 189.975C724.059 198.41 717.231 205.238 708.796 205.238C700.361 205.238 693.533 198.41 693.533 189.975Z" fill="#33E5F5"/>
<path d="M579.038 272.317C579.038 238.577 598.117 215.08 634.065 215.08C658.567 215.08 676.842 228.937 676.842 242.594C676.842 251.029 670.617 255.246 663.186 255.246C649.329 255.246 654.349 237.975 633.262 237.975C621.815 237.975 608.359 245.807 608.359 272.317C608.359 290.592 616.995 302.441 633.061 302.441C653.546 302.441 649.128 283.563 664.592 283.563C672.022 283.563 676.842 288.986 676.842 294.81C676.842 307.663 662.382 325.336 632.258 325.336C596.108 325.336 579.038 303.044 579.038 272.317Z" fill="black"/>
<path d="M471.17 272.317C471.17 238.577 490.249 215.08 526.197 215.08C550.699 215.08 568.974 228.937 568.974 242.594C568.974 251.029 562.749 255.246 555.318 255.246C541.461 255.246 546.481 237.975 525.394 237.975C513.947 237.975 500.491 245.807 500.491 272.317C500.491 290.592 509.127 302.441 525.193 302.441C545.678 302.441 541.26 283.563 556.724 283.563C564.154 283.563 568.974 288.986 568.974 294.81C568.974 307.663 554.515 325.336 524.39 325.336C488.241 325.336 471.17 303.044 471.17 272.317Z" fill="black"/>
<path d="M336.213 298.224L378.789 185.558C381.601 178.127 386.823 175.517 394.856 175.517H402.688C410.119 175.517 416.746 177.324 420.361 187.566L460.126 298.224C461.331 301.437 463.339 307.261 463.339 310.876C463.339 318.91 456.31 325.336 447.875 325.336C440.645 325.336 435.424 322.725 433.014 316.299L424.579 292.199H371.559L362.924 316.299C360.715 322.725 356.096 325.336 348.263 325.336C339.226 325.336 333 319.713 333 310.876C333 307.261 335.008 301.437 336.213 298.224ZM417.349 269.304L398.672 211.264H398.27L378.789 269.304H417.349Z" fill="black"/>
<path d="M849.319 136.737V54.7981C849.319 45.9615 855.144 41.1416 862.574 41.1416C870.005 41.1416 875.829 45.9615 875.829 54.7981V66.0446H876.231C879.645 53.7939 886.272 41.1416 900.531 41.1416C909.769 41.1416 916.598 47.1665 916.598 55.4006C916.598 66.2454 909.368 70.0612 902.138 70.0612H896.916C885.067 70.0612 878.641 78.2952 878.641 102.596V136.737C878.641 144.569 875.427 151.398 863.98 151.398C852.533 151.398 849.319 144.569 849.319 136.737Z" fill="black"/>
<path d="M822.342 71.2662V120.47C822.342 132.72 825.355 135.532 825.355 140.151C825.355 146.778 819.129 151.398 812.1 151.398C799.448 151.398 795.23 143.364 794.829 134.327C783.381 146.979 770.126 151.398 754.662 151.398C737.993 151.398 721.525 139.95 721.525 121.474C721.525 97.1733 740.002 90.3451 762.495 87.7343L780.369 85.726C787.398 84.9227 793.021 83.316 793.021 74.8811C793.021 66.4462 784.385 62.8313 774.545 62.8313C752.855 62.8313 752.252 78.8977 740.604 78.8977C733.174 78.8977 728.153 73.6761 728.153 67.6512C728.153 56.0031 744.621 41.1416 774.745 41.1416C802.862 41.1416 822.342 50.179 822.342 71.2662ZM793.021 110.83V99.3825C789.808 102.395 783.783 103.399 780.369 104.002L769.725 105.608C757.474 107.416 750.847 111.231 750.847 120.068C750.847 126.695 757.072 132.118 767.114 132.118C783.18 132.118 793.021 121.675 793.021 110.83Z" fill="black"/>
<path d="M579 76.4866C579 35.718 603.1 0.773438 649.692 0.773438C687.448 0.773438 708.134 24.4714 708.134 38.5296C708.134 47.7678 703.113 53.391 693.273 53.391C674.194 53.391 679.817 27.2831 649.692 27.2831C629.007 27.2831 611.936 45.157 611.936 76.4866C611.936 102.795 622.379 125.69 650.897 125.69C676.804 125.69 676.202 97.9754 692.068 97.9754C700.101 97.9754 708.134 102.595 708.134 110.628C708.134 131.514 682.829 152.2 650.897 152.2C605.71 152.2 579 126.293 579 76.4866Z" fill="black"/>
</svg>
