<svg width="1769" height="260" viewBox="0 0 1769 260" fill="none" xmlns="http://www.w3.org/2000/svg">
<rect x="1070" width="699" height="260" fill="black"/>
<path d="M1666 51H1734.1V73.7017H1690.97V115.7H1725.25V138.401H1690.97V187.21H1734.1V209.912H1666V51Z" fill="white"/>
<path d="M1569.12 51H1600.45L1624.74 146.12H1625.19V51H1647.44V209.912H1621.79L1591.82 93.9061H1591.37V209.912H1569.12V51Z" fill="white"/>
<path d="M1525.44 51H1550.42V209.912H1525.44V51Z" fill="white"/>
<path d="M1447.41 51H1472.38V187.21H1513.47V209.912H1447.41V51Z" fill="white"/>
<path d="M1359.84 51H1396.61C1409.02 51 1418.33 54.3296 1424.54 60.9887C1430.74 67.6479 1433.84 77.4096 1433.84 90.2739V105.938C1433.84 118.802 1430.74 128.564 1424.54 135.223C1418.33 141.882 1409.02 145.212 1396.61 145.212H1384.81V209.912H1359.84V51ZM1396.61 122.51C1400.7 122.51 1403.73 121.375 1405.69 119.105C1407.81 116.835 1408.87 112.976 1408.87 107.527V88.6847C1408.87 83.2363 1407.81 79.3771 1405.69 77.1069C1403.73 74.8367 1400.7 73.7017 1396.61 73.7017H1384.81V122.51H1396.61Z" fill="white"/>
<path d="M1281.8 51H1306.77V187.21H1347.86V209.912H1281.8V51Z" fill="white"/>
<path d="M1199.33 51H1267.43V73.7017H1224.3V115.7H1258.58V138.401H1224.3V187.21H1267.43V209.912H1199.33V51Z" fill="white"/>
<path d="M1104 51H1128.97V115.7H1155.76V51H1180.73V209.912H1155.76V138.401H1128.97V209.912H1104V51Z" fill="white"/>
<rect x="2" y="2" width="1765" height="256" stroke="black" stroke-width="4"/>
<path d="M1002.33 211.452C990.22 211.452 981.064 208.047 974.858 201.236C968.653 194.274 965.551 184.361 965.551 171.497V162.416H989.16V173.313C989.16 183.605 993.474 188.75 1002.1 188.75C1006.34 188.75 1009.52 187.539 1011.64 185.118C1013.91 182.545 1015.04 178.459 1015.04 172.859C1015.04 166.2 1013.53 160.373 1010.5 155.379C1007.47 150.233 1001.87 144.104 993.701 136.99C983.409 127.91 976.221 119.737 972.134 112.473C968.048 105.057 966.005 96.7329 966.005 87.5009C966.005 74.9393 969.183 65.2533 975.539 58.4428C981.896 51.4809 991.128 48 1003.24 48C1015.19 48 1024.2 51.4809 1030.25 58.4428C1036.46 65.2533 1039.56 75.0906 1039.56 87.9549V94.5384H1015.95V86.3658C1015.95 80.9174 1014.89 76.9824 1012.77 74.5609C1010.65 71.9881 1007.55 70.7017 1003.46 70.7017C995.139 70.7017 990.977 75.7717 990.977 85.9118C990.977 91.6628 992.49 97.0356 995.517 102.03C998.695 107.024 1004.37 113.078 1012.54 120.191C1022.99 129.272 1030.17 137.52 1034.11 144.936C1038.04 152.352 1040.01 161.054 1040.01 171.043C1040.01 184.059 1036.76 194.047 1030.25 201.009C1023.89 207.971 1014.59 211.452 1002.33 211.452Z" fill="black"/>
<path d="M847.709 50.27H883.351L899.242 164.005H899.696L915.587 50.27H951.229V209.182H927.619V88.8628H927.165L909.004 209.182H888.118L869.957 88.8628H869.503V209.182H847.709V50.27Z" fill="black"/>
<path d="M804.036 50.27H829.007V209.182H804.036V50.27Z" fill="black"/>
<path d="M732.215 50.27H766.04L791.92 209.182H766.948L762.408 177.626V178.08H734.031L729.491 209.182H706.335L732.215 50.27ZM759.457 156.514L748.333 77.966H747.879L736.982 156.514H759.457Z" fill="black"/>
<path d="M633.995 50.27H658.966V186.48H700.056V209.182H633.995V50.27Z" fill="black"/>
<path d="M582.278 211.452C570.321 211.452 561.165 208.047 554.809 201.236C548.604 194.426 545.501 184.815 545.501 172.405V87.0468C545.501 74.6366 548.604 65.0262 554.809 58.2157C561.165 51.4053 570.321 48 582.278 48C594.234 48 603.315 51.4053 609.52 58.2157C615.876 65.0262 619.054 74.6366 619.054 87.0468V103.846H595.445V85.4577C595.445 75.6203 591.283 70.7017 582.959 70.7017C574.635 70.7017 570.473 75.6203 570.473 85.4577V174.221C570.473 183.907 574.635 188.75 582.959 188.75C591.283 188.75 595.445 183.907 595.445 174.221V149.93H619.054V172.405C619.054 184.815 615.876 194.426 609.52 201.236C603.315 208.047 594.234 211.452 582.278 211.452Z" fill="black"/>
<path d="M419.171 50.27H456.175C469.039 50.27 478.423 53.2969 484.325 59.3507C490.228 65.2531 493.179 74.4094 493.179 86.8197V96.5814C493.179 113.078 487.73 123.521 476.834 127.91V128.364C482.887 130.18 487.125 133.888 489.547 139.488C492.119 145.087 493.406 152.579 493.406 161.962V189.885C493.406 194.426 493.557 198.133 493.86 201.009C494.162 203.733 494.919 206.457 496.13 209.182H470.704C469.796 206.609 469.191 204.187 468.888 201.917C468.585 199.647 468.434 195.561 468.434 189.658V160.6C468.434 153.336 467.223 148.265 464.802 145.39C462.532 142.514 458.521 141.077 452.77 141.077H444.143V209.182H419.171V50.27ZM453.224 118.375C458.218 118.375 461.926 117.089 464.348 114.516C466.921 111.943 468.207 107.63 468.207 101.576V89.3169C468.207 83.5658 467.148 79.4038 465.029 76.831C463.061 74.2581 459.883 72.9717 455.494 72.9717H444.143V118.375H453.224Z" fill="black"/>
<path d="M364.372 211.452C352.113 211.452 342.729 207.971 336.222 201.009C329.714 194.047 326.46 184.21 326.46 171.497V87.9549C326.46 75.242 329.714 65.4046 336.222 58.4428C342.729 51.4809 352.113 48 364.372 48C376.631 48 386.014 51.4809 392.522 58.4428C399.03 65.4046 402.283 75.242 402.283 87.9549V171.497C402.283 184.21 399.03 194.047 392.522 201.009C386.014 207.971 376.631 211.452 364.372 211.452ZM364.372 188.75C372.998 188.75 377.312 183.529 377.312 173.086V86.3658C377.312 75.923 372.998 70.7017 364.372 70.7017C355.745 70.7017 351.432 75.923 351.432 86.3658V173.086C351.432 183.529 355.745 188.75 364.372 188.75Z" fill="black"/>
<path d="M265.994 72.9717H239.887V50.27H317.073V72.9717H290.966V209.182H265.994V72.9717Z" fill="black"/>
<path d="M192.558 211.452C180.299 211.452 170.916 207.971 164.408 201.009C157.9 194.047 154.646 184.21 154.646 171.497V87.9549C154.646 75.242 157.9 65.4046 164.408 58.4428C170.916 51.4809 180.299 48 192.558 48C204.817 48 214.2 51.4809 220.708 58.4428C227.216 65.4046 230.47 75.242 230.47 87.9549V171.497C230.47 184.21 227.216 194.047 220.708 201.009C214.2 207.971 204.817 211.452 192.558 211.452ZM192.558 188.75C201.184 188.75 205.498 183.529 205.498 173.086V86.3658C205.498 75.923 201.184 70.7017 192.558 70.7017C183.931 70.7017 179.618 75.923 179.618 86.3658V173.086C179.618 183.529 183.931 188.75 192.558 188.75Z" fill="black"/>
<path d="M34.3076 50.27H69.9492L85.8404 164.005H86.2944L102.186 50.27H137.827V209.182H114.217V88.8628H113.763L95.6021 209.182H74.7166L56.5552 88.8628H56.1012V209.182H34.3076V50.27Z" fill="black"/>
</svg>
