<svg width="376" height="173" viewBox="0 0 376 173" fill="none" xmlns="http://www.w3.org/2000/svg">
<path d="M30.9319 10.3369C33.546 10.3369 35.6847 12.4757 35.6847 15.0897C35.6847 17.7037 33.546 19.8424 30.9319 19.8424C28.3179 19.8424 26.1792 17.7037 26.1792 15.0897C26.1792 12.4757 28.1991 10.3369 30.9319 10.3369Z" fill="white"/>
<path d="M24.7533 142.344C22.6146 142.344 20.5946 141.75 18.5747 140.562C11.5644 136.641 7.16813 126.185 6.3364 112.045C5.7423 102.065 7.04931 90.5391 10.3762 79.1325C5.02939 73.7857 1.46483 67.1318 0.395463 60.2404C-1.74327 46.9327 4.91057 32.5556 17.5054 22.9313C18.5747 22.0996 20.0005 22.3372 20.8323 23.4066C21.664 24.4759 21.4264 25.9018 20.357 26.7335C9.06923 35.2884 3.12829 47.8832 5.02939 59.5274C5.86112 64.7555 8.2375 69.627 12.0397 74.0233C16.9113 60.478 24.8721 47.6456 36.3975 39.2095C47.4477 31.1298 67.6468 22.8125 76.2018 30.8921C80.9545 35.4073 82.3803 45.6257 79.7663 56.9134C76.7959 69.8647 68.0033 85.5487 52.2004 90.4203C41.3879 93.7472 28.5555 91.8461 17.9806 85.1923C16.6736 84.3606 15.4854 83.5288 14.4161 82.6971C11.5644 92.6779 10.495 102.896 11.0891 111.689C11.8021 124.046 15.4854 133.314 20.9511 136.403C27.2485 140.087 34.2588 134.146 46.9724 122.383C60.1613 110.382 78.2217 93.8661 105.312 84.1229C155.454 66.1813 199.06 79.6078 237.558 91.4897C277.243 103.728 311.463 114.303 346.633 92.3214C355.901 86.4993 364.099 78.6573 370.753 69.0329C371.466 67.9636 373.011 67.7259 374.08 68.4389C375.15 69.1518 375.387 70.6964 374.674 71.7658C367.545 81.8654 358.99 90.1827 349.128 96.3612C312.176 119.531 275.223 108.124 236.132 96.0048C196.565 83.7665 155.691 71.0529 106.976 88.638C80.7169 98.0247 63.1317 114.184 50.1805 125.947C40.1997 135.215 32.3577 142.344 24.7533 142.344ZM15.7231 77.7067C17.1489 78.8949 18.6935 80.0831 20.357 81.1525C29.7437 86.9746 41.3879 88.8757 50.6558 85.9052C64.5575 81.5089 72.3996 67.4883 75.0136 55.7253C77.1523 46.3386 76.3206 37.4272 72.8749 34.2191C67.2904 28.991 50.5369 34.5755 39.1304 42.8928C27.7238 51.329 20.1194 64.1614 15.7231 77.7067Z" fill="white"/>
<path d="M97.8268 3.4459C98.6585 1.06952 100.322 0.237793 102.817 0.237793H105.312C107.689 0.237793 109.709 0.831886 110.897 4.03999L123.373 38.735C123.729 39.6856 124.323 41.5867 124.323 42.6561C124.323 45.1513 122.066 47.1712 119.452 47.1712C117.194 47.1712 115.531 46.3394 114.818 44.3195L112.204 36.8339H95.5692L92.8364 44.4383C92.1235 46.4583 90.6976 47.29 88.2025 47.29C85.3508 47.29 83.4497 45.5077 83.4497 42.7749C83.4497 41.5867 84.0438 39.8044 84.4003 38.8539L97.8268 3.4459ZM104.124 11.4067H104.005L97.8268 29.7048H109.946L104.124 11.4067Z" fill="black"/>
<path d="M144.047 12.7139C151.77 12.7139 157.474 17.1102 157.474 21.3876C157.474 24.0016 155.573 25.3086 153.196 25.3086C148.8 25.3086 150.463 19.843 143.81 19.843C140.245 19.843 135.968 22.3382 135.968 30.6555C135.968 36.3588 138.7 40.161 143.691 40.161C150.107 40.161 148.681 34.22 153.553 34.22C155.929 34.22 157.355 35.8835 157.355 37.7846C157.355 41.8244 152.84 47.4089 143.334 47.4089C132.047 47.4089 126.7 40.3986 126.7 30.7743C126.819 20.0806 132.878 12.7139 144.047 12.7139Z" fill="black"/>
<path d="M177.911 12.7139C185.634 12.7139 191.337 17.1102 191.337 21.3876C191.337 24.0016 189.436 25.3086 187.06 25.3086C182.663 25.3086 184.327 19.843 177.673 19.843C174.108 19.843 169.831 22.3382 169.831 30.6555C169.831 36.3588 172.564 40.161 177.554 40.161C183.97 40.161 182.544 34.22 187.416 34.22C189.792 34.22 191.218 35.8835 191.218 37.7846C191.218 41.8244 186.703 47.4089 177.198 47.4089C165.91 47.4089 160.563 40.3986 160.563 30.7743C160.682 20.0806 166.623 12.7139 177.911 12.7139Z" fill="black"/>
<path d="M201.318 0C203.932 0 206.071 2.13874 206.071 4.75275C206.071 7.36676 203.932 9.50549 201.318 9.50549C198.704 9.50549 196.565 7.36676 196.565 4.75275C196.565 2.13874 198.704 0 201.318 0Z" fill="white"/>
<path d="M196.803 17.2282C196.803 14.733 197.753 12.5942 201.437 12.5942C205.12 12.5942 206.071 14.733 206.071 17.2282V42.6554C206.071 45.1506 205.12 47.2893 201.437 47.2893C197.753 47.2893 196.803 45.1506 196.803 42.6554V17.2282Z" fill="black"/>
<path d="M244.924 42.8937C244.924 45.7453 243.617 47.29 240.766 47.29C238.033 47.29 236.607 45.7453 236.607 42.8937V41.4679H236.488C234.944 45.3889 231.26 47.29 226.745 47.29C219.022 47.29 212.368 41.7055 212.368 29.8236C212.368 21.0311 216.883 12.7138 226.508 12.7138C230.547 12.7138 233.756 14.3772 235.538 17.3477H235.657V4.87172C235.657 1.90125 237.439 0.237793 240.291 0.237793C243.142 0.237793 244.924 1.78244 244.924 4.87172V42.8937ZM228.884 40.042C234.231 40.042 236.251 35.2893 236.251 30.0613C236.251 25.3085 234.468 19.8429 228.884 19.8429C223.062 19.8429 221.636 25.7838 221.636 30.0613C221.517 35.4081 224.012 39.9232 228.884 40.042Z" fill="black"/>
<path d="M260.015 31.7249C260.015 36.5964 263.223 40.161 268.57 40.161C275.461 40.161 275.461 35.6459 279.263 35.6459C281.521 35.6459 283.065 37.547 283.065 39.2104C283.065 44.7949 274.154 47.2901 268.688 47.2901C255.856 47.2901 250.984 38.6163 250.984 30.6555C250.984 19.9618 257.519 12.7139 268.332 12.7139C278.907 12.7139 284.967 20.1994 284.967 27.8038C284.967 31.0119 284.016 31.7249 280.927 31.7249H260.015ZM276.174 26.378C275.699 22.1005 272.491 19.1301 268.451 19.1301C263.817 19.1301 261.084 21.9817 260.015 26.378H276.174Z" fill="black"/>
<path d="M290.788 17.2282C290.788 14.4953 292.095 12.5942 294.946 12.5942C297.798 12.5942 299.105 14.3765 299.105 17.2282V18.4164H299.224C301.838 14.9706 305.165 12.5942 310.393 12.5942C315.977 12.5942 322.037 15.3271 322.037 24.7137V42.6554C322.037 45.1506 321.087 47.2893 317.403 47.2893C313.72 47.2893 312.769 45.1506 312.769 42.6554V26.6148C312.769 22.9315 310.987 20.1986 306.947 20.1986C303.739 20.1986 299.937 22.8126 299.937 27.4466V42.6554C299.937 45.1506 298.986 47.2893 295.303 47.2893C291.62 47.2893 290.669 45.1506 290.669 42.6554V17.2282H290.788Z" fill="black"/>
<path d="M331.662 19.4867H330.117C327.503 19.4867 326.434 18.5361 326.434 16.5162C326.434 14.4963 327.503 13.5457 330.117 13.5457H331.662V7.84242C331.662 4.87196 333.444 3.2085 336.296 3.2085C339.147 3.2085 340.929 4.75314 340.929 7.84242V13.4269H343.662C346.395 13.4269 347.821 14.2586 347.821 16.3974C347.821 18.6549 346.395 19.3678 343.662 19.3678H340.929V37.7847C340.929 39.2106 341.642 39.9235 343.306 39.9235H344.613C346.633 39.9235 347.821 41.1117 347.821 43.0128C347.821 45.6268 345.563 47.0526 341.167 47.0526C334.513 47.0526 331.662 44.3198 331.662 38.8541V19.4867Z" fill="black"/>
<path d="M150.464 56.7949C162.346 56.7949 168.762 64.2805 168.762 68.6768C168.762 71.5284 167.217 73.3107 164.128 73.3107C158.187 73.3107 159.85 65.1122 150.464 65.1122C143.929 65.1122 138.582 70.6967 138.582 80.5587C138.582 88.7572 141.909 96.0051 150.82 96.0051C158.9 96.0051 158.781 87.3313 163.771 87.3313C166.267 87.3313 168.762 88.7572 168.762 91.2523C168.762 97.7874 160.801 104.322 150.82 104.322C136.681 104.322 128.245 96.2427 128.245 80.5587C128.245 67.7262 135.849 56.7949 150.464 56.7949Z" fill="black"/>
<path d="M174.584 61.6671C174.584 58.6967 176.366 57.0332 179.218 57.0332C182.07 57.0332 183.852 58.5778 183.852 61.6671V99.4515C183.852 102.422 182.07 104.085 179.218 104.085C176.366 104.085 174.584 102.541 174.584 99.4515V61.6671Z" fill="black"/>
<path d="M222.112 94.3416C222.112 98.1438 223.062 99.0943 223.062 100.52C223.062 102.54 221.161 104.085 218.904 104.085C214.983 104.085 213.557 101.59 213.438 98.7379C209.873 102.659 205.715 104.085 200.843 104.085C195.615 104.085 190.506 100.52 190.506 94.698C190.506 87.0936 196.328 84.9549 203.338 84.1232L208.923 83.5291C211.18 83.2914 212.844 82.8162 212.844 80.0833C212.844 77.4693 210.111 76.2811 207.022 76.2811C200.249 76.2811 200.011 81.2715 196.328 81.2715C193.952 81.2715 192.407 79.6081 192.407 77.707C192.407 74.0236 197.516 69.3896 207.022 69.3896C215.814 69.3896 221.993 72.2413 221.993 78.8951V94.3416H222.112ZM212.963 87.6877C212.012 88.6383 210.111 88.9947 209.042 89.1135L205.715 89.5888C201.912 90.1829 199.774 91.3711 199.774 94.1039C199.774 96.1238 201.675 97.9061 204.883 97.9061C209.873 97.9061 212.963 94.5792 212.963 91.2523V87.6877Z" fill="black"/>
<path d="M235.181 56.7949C237.795 56.7949 239.934 58.9337 239.934 61.5477C239.934 64.1617 237.795 66.3004 235.181 66.3004C232.567 66.3004 230.429 64.1617 230.429 61.5477C230.429 58.9337 232.567 56.7949 235.181 56.7949Z" fill="white"/>
<path d="M230.548 74.0236C230.548 71.5284 231.498 69.3896 235.182 69.3896C238.865 69.3896 239.816 71.5284 239.816 74.0236V99.4508C239.816 101.946 238.865 104.085 235.182 104.085C231.498 104.085 230.548 101.946 230.548 99.4508V74.0236Z" fill="black"/>
<path d="M247.539 74.0236C247.539 71.2907 249.202 69.3896 251.935 69.3896C254.668 69.3896 256.331 71.1719 256.331 74.0236V75.2118H256.45C258.827 71.5284 262.866 69.3896 267.5 69.3896C270.708 69.3896 274.629 70.8155 276.293 75.2118C278.907 71.6472 282.115 69.3896 287.105 69.3896C293.522 69.3896 298.512 72.2413 298.512 80.5586V99.332C298.512 101.827 297.561 103.966 293.878 103.966C290.195 103.966 289.244 101.827 289.244 99.332V82.935C289.244 79.6081 287.818 76.994 284.254 76.994C280.689 76.994 277.6 79.8457 277.6 84.1232V99.4508C277.6 101.946 276.649 104.085 272.966 104.085C269.283 104.085 268.332 101.946 268.332 99.4508V82.935C268.332 79.6081 266.906 76.994 263.342 76.994C259.777 76.994 256.688 79.8457 256.688 84.1232V99.4508C256.688 101.946 255.737 104.085 252.054 104.085C248.37 104.085 247.42 101.946 247.42 99.4508V74.0236H247.539Z" fill="black"/>
<path d="M318.235 69.3896C325.246 69.3896 332.256 72.1225 332.256 76.4C332.256 78.5387 330.83 80.4398 328.454 80.4398C324.889 80.4398 324.77 76.1623 318.948 76.1623C315.74 76.1623 313.602 76.994 313.602 79.014C313.602 81.1527 315.74 81.628 318.473 82.3409L322.275 83.1726C327.503 84.3608 333.682 86.6184 333.682 93.0346C333.682 100.52 326.434 103.966 319.542 103.966C311.225 103.966 304.334 100.283 304.334 95.7674C304.334 93.7475 305.522 91.9652 308.017 91.9652C311.938 91.9652 312.413 97.6685 319.186 97.6685C322.513 97.6685 324.533 96.2427 324.533 94.3416C324.533 91.9652 322.513 91.6087 319.186 90.777L313.72 89.47C308.373 88.163 304.215 85.9054 304.215 79.7269C304.452 72.2413 311.938 69.3896 318.235 69.3896Z" fill="black"/>
<path d="M98.7773 118.937C98.7773 115.848 100.797 113.828 103.887 113.828C106.976 113.828 108.996 115.848 108.996 118.937V131.77H127.769V118.937C127.769 115.848 129.789 113.828 132.878 113.828C135.968 113.828 137.988 115.848 137.988 118.937V155.652C137.988 158.742 135.968 160.762 132.878 160.762C129.789 160.762 127.769 158.623 127.769 155.652V140.562H109.115V155.652C109.115 158.742 107.095 160.762 104.005 160.762C100.916 160.762 98.8962 158.623 98.8962 155.652V118.937H98.7773Z" fill="black"/>
<path d="M154.503 145.196C154.503 150.067 157.711 153.632 163.058 153.632C169.95 153.632 169.95 149.117 173.752 149.117C176.01 149.117 177.554 151.018 177.554 152.681C177.554 158.266 168.643 160.761 163.177 160.761C150.345 160.761 145.473 152.087 145.473 144.126C145.473 133.433 152.008 126.185 162.821 126.185C173.396 126.185 179.455 133.67 179.455 141.275C179.455 144.483 178.505 145.196 175.415 145.196H154.503ZM170.663 139.968C170.187 135.69 166.979 132.72 162.939 132.72C158.306 132.72 155.573 135.571 154.503 139.968H170.663Z" fill="black"/>
<path d="M185.753 118.343C185.753 115.372 187.535 113.709 190.387 113.709C193.239 113.709 195.021 115.254 195.021 118.343V156.127C195.021 159.098 193.239 160.761 190.387 160.761C187.535 160.761 185.753 159.217 185.753 156.127V118.343Z" fill="black"/>
<path d="M202.744 130.581C202.744 127.729 204.051 126.185 206.903 126.185C209.636 126.185 211.061 127.729 211.061 130.581V132.007H211.18C212.725 128.086 216.408 126.185 220.923 126.185C228.647 126.185 235.3 131.769 235.3 143.651C235.3 152.444 230.785 160.761 221.161 160.761C216.884 160.761 213.794 159.097 212.131 156.127H212.012V168.365C212.012 171.336 210.23 172.999 207.378 172.999C204.645 172.999 202.744 171.454 202.744 168.365V130.581ZM218.785 133.433C213.438 133.433 211.418 138.185 211.418 143.413C211.418 148.166 213.2 153.632 218.785 153.632C224.607 153.632 226.151 147.691 226.151 143.413C226.151 137.948 223.656 133.551 218.785 133.433Z" fill="black"/>
<path d="M241.716 118.343C241.716 115.372 243.498 113.709 246.35 113.709C249.201 113.709 250.984 115.254 250.984 118.343V156.127C250.984 159.098 249.201 160.761 246.35 160.761C243.498 160.761 241.716 159.217 241.716 156.127V118.343Z" fill="black"/>
<path d="M263.816 113.59C266.43 113.59 268.569 115.729 268.569 118.343C268.569 120.957 266.43 123.096 263.816 123.096C261.202 123.096 259.063 120.957 259.063 118.343C259.063 115.729 261.202 113.59 263.816 113.59Z" fill="white"/>
<path d="M259.183 130.819C259.183 128.323 260.133 126.185 263.817 126.185C267.5 126.185 268.45 128.323 268.45 130.819V156.246C268.45 158.741 267.5 160.88 263.817 160.88C260.133 160.88 259.183 158.741 259.183 156.246V130.819Z" fill="black"/>
<path d="M276.293 130.819C276.293 128.086 277.6 126.185 280.451 126.185C283.303 126.185 284.61 127.967 284.61 130.819V132.007H284.729C287.343 128.561 290.67 126.185 295.898 126.185C301.482 126.185 307.542 128.917 307.542 138.304V156.246C307.542 158.741 306.591 160.88 302.908 160.88C299.225 160.88 298.274 158.741 298.274 156.246V140.205C298.274 136.522 296.492 133.789 292.452 133.789C289.244 133.789 285.442 136.403 285.442 141.037V156.246C285.442 158.741 284.491 160.88 280.808 160.88C277.124 160.88 276.174 158.741 276.174 156.246V130.819H276.293Z" fill="black"/>
<path d="M322.513 145.196C322.513 150.067 325.721 153.632 331.068 153.632C337.959 153.632 337.959 149.117 341.761 149.117C344.019 149.117 345.563 151.018 345.563 152.681C345.563 158.266 336.652 160.761 331.186 160.761C318.354 160.761 313.482 152.087 313.482 144.126C313.482 133.433 320.017 126.185 330.83 126.185C341.405 126.185 347.465 133.67 347.465 141.275C347.465 144.483 346.514 145.196 343.425 145.196H322.513ZM338.672 139.968C338.197 135.69 334.989 132.72 330.949 132.72C326.315 132.72 323.582 135.571 322.513 139.968H338.672Z" fill="black"/>
</svg>
