<svg width="1009" height="455" viewBox="0 0 1009 455" fill="none" xmlns="http://www.w3.org/2000/svg">
<rect y="210" width="1009" height="245" fill="black"/>
<path d="M752.572 253H820.677V275.702H777.544V317.7H811.823V340.401H777.544V389.21H820.677V411.912H752.572V253Z" fill="white"/>
<path d="M655.69 253H687.019L711.309 348.12H711.763V253H734.011V411.912H708.358L678.392 295.906H677.938V411.912H655.69V253Z" fill="white"/>
<path d="M612.017 253H636.988V411.912H612.017V253Z" fill="white"/>
<path d="M533.979 253H558.951V389.21H600.041V411.912H533.979V253Z" fill="white"/>
<path d="M446.41 253H483.186C495.597 253 504.904 256.33 511.109 262.989C517.314 269.648 520.417 279.41 520.417 292.274V307.938C520.417 320.802 517.314 330.564 511.109 337.223C504.904 343.882 495.597 347.212 483.186 347.212H471.381V411.912H446.41V253ZM483.186 324.51C487.273 324.51 490.3 323.375 492.267 321.105C494.386 318.835 495.445 314.976 495.445 309.527V290.685C495.445 285.236 494.386 281.377 492.267 279.107C490.3 276.837 487.273 275.702 483.186 275.702H471.381V324.51H483.186Z" fill="white"/>
<path d="M368.373 253H393.345V389.21H434.435V411.912H368.373V253Z" fill="white"/>
<path d="M285.902 253H354.007V275.702H310.874V317.7H345.153V340.401H310.874V389.21H354.007V411.912H285.902V253Z" fill="white"/>
<path d="M190.573 253H215.545V317.7H242.333V253H267.304V411.912H242.333V340.401H215.545V411.912H190.573V253Z" fill="white"/>
<path d="M970.816 163.452C958.709 163.452 949.552 160.047 943.347 153.236C937.142 146.274 934.04 136.361 934.04 123.497V114.416H957.649V125.313C957.649 135.605 961.963 140.75 970.589 140.75C974.827 140.75 978.005 139.539 980.124 137.118C982.394 134.545 983.529 130.459 983.529 124.859C983.529 118.2 982.016 112.373 978.989 107.379C975.962 102.233 970.362 96.1036 962.19 88.9905C951.898 79.9098 944.709 71.7372 940.623 64.4727C936.537 57.0568 934.494 48.7329 934.494 39.5009C934.494 26.9393 937.672 17.2533 944.028 10.4428C950.385 3.48092 959.617 0 971.724 0C983.68 0 992.685 3.48092 998.739 10.4428C1004.94 17.2533 1008.05 27.0906 1008.05 39.9549V46.5384H984.437V38.3658C984.437 32.9174 983.378 28.9824 981.259 26.5609C979.14 23.9881 976.038 22.7017 971.951 22.7017C963.627 22.7017 959.465 27.7717 959.465 37.9118C959.465 43.6628 960.979 49.0356 964.006 54.0299C967.184 59.0243 972.859 65.0781 981.032 72.1913C991.475 81.2719 998.663 89.5202 1002.6 96.9361C1006.53 104.352 1008.5 113.054 1008.5 123.043C1008.5 136.059 1005.25 146.047 998.739 153.009C992.383 159.971 983.075 163.452 970.816 163.452Z" fill="black"/>
<path d="M816.198 2.27026H851.84L867.731 116.006H868.185L884.076 2.27026H919.718V161.182H896.108V40.8631H895.654L877.493 161.182H856.607L838.446 40.8631H837.992V161.182H816.198V2.27026Z" fill="black"/>
<path d="M772.524 2.27026H797.496V161.182H772.524V2.27026Z" fill="black"/>
<path d="M700.704 2.27026H734.529L760.409 161.182H735.437L730.897 129.627V130.081H702.52L697.979 161.182H674.824L700.704 2.27026ZM727.946 108.514L716.822 29.9663H716.368L705.471 108.514H727.946Z" fill="black"/>
<path d="M602.483 2.27026H627.455V138.48H668.545V161.182H602.483V2.27026Z" fill="black"/>
<path d="M550.766 163.452C538.81 163.452 529.654 160.047 523.297 153.236C517.092 146.426 513.99 136.815 513.99 124.405V39.0468C513.99 26.6366 517.092 17.0262 523.297 10.2157C529.654 3.40525 538.81 0 550.766 0C562.723 0 571.803 3.40525 578.008 10.2157C584.365 17.0262 587.543 26.6366 587.543 39.0468V55.8461H563.933V37.4577C563.933 27.6203 559.771 22.7017 551.447 22.7017C543.124 22.7017 538.962 27.6203 538.962 37.4577V126.221C538.962 135.907 543.124 140.75 551.447 140.75C559.771 140.75 563.933 135.907 563.933 126.221V101.93H587.543V124.405C587.543 136.815 584.365 146.426 578.008 153.236C571.803 160.047 562.723 163.452 550.766 163.452Z" fill="black"/>
<path d="M387.66 2.27026H424.664C437.528 2.27026 446.911 5.29715 452.814 11.3509C458.716 17.2534 461.668 26.4097 461.668 38.8199V48.5816C461.668 65.0782 456.219 75.5209 445.322 79.9099V80.364C451.376 82.1801 455.614 85.888 458.035 91.4878C460.608 97.0875 461.895 104.579 461.895 113.962V141.885C461.895 146.426 462.046 150.134 462.349 153.009C462.651 155.733 463.408 158.458 464.619 161.182H439.193C438.285 158.609 437.679 156.187 437.377 153.917C437.074 151.647 436.923 147.561 436.923 141.658V112.6C436.923 105.336 435.712 100.266 433.29 97.3902C431.02 94.5146 427.01 93.0769 421.259 93.0769H412.632V161.182H387.66V2.27026ZM421.713 70.3752C426.707 70.3752 430.415 69.0888 432.836 66.5159C435.409 63.9431 436.696 59.6298 436.696 53.576V41.3171C436.696 35.566 435.636 31.4041 433.517 28.8312C431.55 26.2583 428.372 24.9719 423.983 24.9719H412.632V70.3752H421.713Z" fill="black"/>
<path d="M332.861 163.452C320.602 163.452 311.219 159.971 304.711 153.009C298.203 146.047 294.949 136.21 294.949 123.497V39.9549C294.949 27.242 298.203 17.4046 304.711 10.4428C311.219 3.48092 320.602 0 332.861 0C345.12 0 354.503 3.48092 361.011 10.4428C367.519 17.4046 370.773 27.242 370.773 39.9549V123.497C370.773 136.21 367.519 146.047 361.011 153.009C354.503 159.971 345.12 163.452 332.861 163.452ZM332.861 140.75C341.488 140.75 345.801 135.529 345.801 125.086V38.3658C345.801 27.923 341.488 22.7017 332.861 22.7017C324.234 22.7017 319.921 27.923 319.921 38.3658V125.086C319.921 135.529 324.234 140.75 332.861 140.75Z" fill="black"/>
<path d="M234.483 24.9719H208.376V2.27026H285.562V24.9719H259.455V161.182H234.483V24.9719Z" fill="black"/>
<path d="M161.047 163.452C148.788 163.452 139.404 159.971 132.896 153.009C126.389 146.047 123.135 136.21 123.135 123.497V39.9549C123.135 27.242 126.389 17.4046 132.896 10.4428C139.404 3.48092 148.788 0 161.047 0C173.305 0 182.689 3.48092 189.197 10.4428C195.704 17.4046 198.958 27.242 198.958 39.9549V123.497C198.958 136.21 195.704 146.047 189.197 153.009C182.689 159.971 173.305 163.452 161.047 163.452ZM161.047 140.75C169.673 140.75 173.986 135.529 173.986 125.086V38.3658C173.986 27.923 169.673 22.7017 161.047 22.7017C152.42 22.7017 148.107 27.923 148.107 38.3658V125.086C148.107 135.529 152.42 140.75 161.047 140.75Z" fill="black"/>
<path d="M2.79639 2.27026H38.438L54.3291 116.006H54.7832L70.6743 2.27026H106.316V161.182H82.7062V40.8631H82.2522L64.0908 161.182H43.2053L25.044 40.8631H24.59V161.182H2.79639V2.27026Z" fill="black"/>
</svg>
