<svg width="1377" height="539" viewBox="0 0 1377 539" fill="none" xmlns="http://www.w3.org/2000/svg">
<path d="M113.557 8C123.154 8 131.005 15.8517 131.005 25.4483C131.005 35.0448 123.154 42.8966 113.557 42.8966C103.96 42.8966 96.1088 35.0448 96.1088 25.4483C96.1088 15.8517 103.524 8 113.557 8Z" fill="white"/>
<path d="M90.8743 492.625C83.0225 492.625 75.607 490.444 68.1915 486.082C42.4553 471.687 26.3156 433.3 23.2622 381.392C21.0811 344.75 25.8794 302.438 38.0932 260.562C18.4639 240.933 5.37769 216.506 1.45182 191.206C-6.3999 142.35 18.0277 89.5693 64.2656 54.2365C68.1915 51.1831 73.426 52.0555 76.4794 55.9814C79.5329 59.9072 78.6605 65.1417 74.7346 68.1952C33.2949 99.6021 11.4846 145.84 18.4639 188.588C21.5173 207.781 30.2415 225.666 44.2001 241.806C62.0846 192.078 91.3105 144.968 133.623 113.997C174.19 84.3348 248.345 53.8003 279.752 83.4624C297.2 100.038 302.435 137.552 292.838 178.992C281.933 226.538 249.654 284.118 191.638 302.002C151.943 314.216 104.833 307.237 66.0105 282.809C61.2122 279.756 56.8501 276.702 52.9243 273.649C42.4553 310.29 38.5294 347.804 40.7105 380.083C43.3277 425.449 56.8501 459.473 76.9156 470.814C100.035 484.337 125.771 462.526 172.445 419.342C220.864 375.285 287.167 314.652 386.623 278.883C570.702 213.016 730.79 262.307 872.121 305.928C1017.81 350.857 1143.44 389.68 1272.56 308.981C1306.58 287.607 1336.68 258.818 1361.11 223.485C1363.73 219.559 1369.4 218.687 1373.32 221.304C1377.25 223.921 1378.12 229.592 1375.5 233.518C1349.33 270.595 1317.92 301.13 1281.72 323.812C1146.06 408.873 1010.4 366.997 866.887 322.504C721.63 277.575 571.574 230.9 392.73 295.459C296.328 329.919 231.769 389.244 184.223 432.428C147.581 466.452 118.792 492.625 90.8743 492.625ZM57.7225 255.328C62.957 259.69 68.6277 264.052 74.7346 267.978C109.195 289.352 151.943 296.331 185.967 285.426C237.004 269.287 265.793 217.814 275.39 174.63C283.242 140.169 280.188 107.454 267.538 95.6762C247.036 76.4831 185.531 96.9848 143.655 127.519C101.779 158.49 73.8622 205.6 57.7225 255.328Z" fill="white"/>
<path d="M1196.07 449.669H1129.8C1129.8 465.133 1139.84 476.38 1156.91 476.38C1179 476.38 1179 461.92 1190.85 461.92C1197.88 461.92 1202.9 467.945 1202.9 473.367C1202.9 491.04 1174.59 499.275 1156.91 499.275C1115.94 499.275 1100.48 471.56 1100.48 446.054C1100.48 411.913 1121.16 389.019 1155.91 389.019C1189.65 389.019 1208.93 412.917 1208.93 437.017C1208.93 447.059 1205.92 449.669 1196.07 449.669ZM1129.8 432.8H1181.21C1179.61 419.344 1169.56 409.503 1156.51 409.503C1141.85 409.503 1133.01 418.541 1129.8 432.8Z" fill="black"/>
<path d="M982.124 484.614V403.679C982.124 394.843 986.141 389.019 995.379 389.019C1004.62 389.019 1008.63 394.843 1008.63 403.679V407.495H1009.04C1017.27 396.65 1027.91 389.019 1044.58 389.019C1062.26 389.019 1081.54 397.855 1081.54 427.578V484.614C1081.54 492.446 1078.32 499.275 1066.87 499.275C1055.43 499.275 1052.21 492.446 1052.21 484.614V433.402C1052.21 421.553 1046.39 413.118 1033.74 413.118C1023.5 413.118 1011.45 421.553 1011.45 436.214V484.614C1011.45 492.446 1008.23 499.275 996.785 499.275C985.337 499.275 982.124 492.446 982.124 484.614Z" fill="black"/>
<path d="M927.835 484.612V403.677C927.835 395.845 931.049 389.017 942.496 389.017C953.943 389.017 957.157 395.845 957.157 403.677V484.612C957.157 492.444 953.943 499.273 942.496 499.273C931.049 499.273 927.835 492.444 927.835 484.612Z" fill="black"/>
<path d="M927.233 363.913C927.233 355.478 934.061 348.649 942.496 348.649C950.931 348.649 957.759 355.478 957.759 363.913C957.759 372.347 950.931 379.176 942.496 379.176C934.061 379.176 927.233 372.347 927.233 363.913Z" fill="white"/>
<path d="M871.94 484.613V364.115C871.94 354.475 877.764 349.454 886.601 349.454C895.437 349.454 901.261 354.475 901.261 364.115V484.613C901.261 494.253 895.437 499.274 886.601 499.274C877.764 499.274 871.94 494.253 871.94 484.613Z" fill="black"/>
<path d="M747.56 523.575V402.876C747.56 393.839 751.778 389.019 760.815 389.019C769.451 389.019 774.07 393.839 774.07 402.876V407.495H774.471C779.291 395.043 791.14 389.019 805.399 389.019C829.901 389.019 851.39 406.892 851.39 444.849C851.39 472.966 837.131 499.275 806.203 499.275C792.747 499.275 782.706 493.852 777.283 484.413H776.881V523.575C776.881 533.215 771.057 538.236 762.221 538.236C753.384 538.236 747.56 533.215 747.56 523.575ZM822.068 443.845C822.068 426.574 814.437 412.315 798.772 411.913C781.701 411.913 775.275 427.176 775.275 443.845C775.275 458.908 780.898 476.581 798.772 476.38C817.449 476.38 822.068 457.502 822.068 443.845Z" fill="black"/>
<path d="M693.272 484.613V364.115C693.272 354.475 699.096 349.454 707.932 349.454C716.769 349.454 722.593 354.475 722.593 364.115V484.613C722.593 494.253 716.769 499.274 707.932 499.274C699.096 499.274 693.272 494.253 693.272 484.613Z" fill="black"/>
<path d="M659.873 449.669H593.598C593.598 465.133 603.64 476.38 620.711 476.38C642.802 476.38 642.802 461.92 654.651 461.92C661.68 461.92 666.701 467.945 666.701 473.367C666.701 491.04 638.384 499.275 620.711 499.275C579.741 499.275 564.277 471.56 564.277 446.054C564.277 411.913 584.963 389.019 619.706 389.019C653.446 389.019 672.726 412.917 672.726 437.017C672.726 447.059 669.713 449.669 659.873 449.669ZM593.598 432.8H645.011C643.404 419.344 633.363 409.503 620.309 409.503C605.648 409.503 596.812 418.541 593.598 432.8Z" fill="black"/>
<path d="M416 482.806V365.922C416 356.082 422.427 349.454 432.468 349.454C442.51 349.454 448.936 356.082 448.936 365.922V406.892H508.784V365.922C508.784 356.082 515.21 349.454 525.252 349.454C535.293 349.454 541.72 356.082 541.72 365.922V482.806C541.72 492.646 535.293 499.274 525.252 499.274C515.21 499.274 508.784 492.646 508.784 482.806V434.606H448.936V482.806C448.936 492.646 442.51 499.274 432.468 499.274C422.427 499.274 416 492.646 416 482.806Z" fill="black"/>
<path d="M1122.57 299.227V236.97H1117.55C1109.32 236.97 1105.9 233.756 1105.9 227.33C1105.9 220.903 1109.32 217.69 1117.55 217.69H1122.57V199.816C1122.57 190.176 1128.4 185.155 1137.23 185.155C1146.07 185.155 1151.89 190.176 1151.89 199.816V217.69H1160.73C1169.37 217.69 1173.98 220.301 1173.98 227.33C1173.98 234.359 1169.37 236.97 1160.73 236.97H1151.89V295.612C1151.89 300.03 1154.3 302.44 1159.52 302.44H1163.74C1170.17 302.44 1173.98 306.055 1173.98 312.281C1173.98 320.716 1166.75 325.335 1152.7 325.335C1131.41 325.335 1122.57 316.498 1122.57 299.227Z" fill="black"/>
<path d="M992.167 310.675V229.741C992.167 220.904 996.184 215.08 1005.42 215.08C1014.66 215.08 1018.68 220.904 1018.68 229.741V233.556H1019.08C1027.31 222.712 1037.96 215.08 1054.63 215.08C1072.3 215.08 1091.58 223.917 1091.58 253.64V310.675C1091.58 318.508 1088.36 325.336 1076.92 325.336C1065.47 325.336 1062.26 318.508 1062.26 310.675V259.464C1062.26 247.615 1056.43 239.18 1043.78 239.18C1033.54 239.18 1021.49 247.615 1021.49 262.275V310.675C1021.49 318.508 1018.28 325.336 1006.83 325.336C995.38 325.336 992.167 318.508 992.167 310.675Z" fill="black"/>
<path d="M960.375 275.731H894.101C894.101 291.195 904.142 302.441 921.213 302.441C943.304 302.441 943.304 287.982 955.153 287.982C962.182 287.982 967.203 294.006 967.203 299.429C967.203 317.102 938.886 325.336 921.213 325.336C880.243 325.336 864.779 297.621 864.779 272.116C864.779 237.975 885.465 215.08 920.209 215.08C953.948 215.08 973.228 238.979 973.228 263.079C973.228 273.12 970.215 275.731 960.375 275.731ZM894.101 258.861H945.513C943.907 245.405 933.865 235.565 920.811 235.565C906.15 235.565 897.314 244.602 894.101 258.861Z" fill="black"/>
<path d="M845.835 190.177V311.479C845.835 320.516 841.618 325.336 832.58 325.336C823.945 325.336 819.326 320.516 819.326 311.479V306.86H818.924C814.104 319.311 802.255 325.336 787.996 325.336C763.495 325.336 742.006 307.462 742.006 269.505C742.006 241.389 756.265 215.08 787.193 215.08C800.247 215.08 810.288 220.503 816.112 229.942H816.514V190.177C816.514 180.537 822.338 175.517 831.175 175.517C840.011 175.517 845.835 180.537 845.835 190.177ZM771.327 270.509C771.327 287.781 778.959 302.04 794.623 302.441C811.694 302.441 818.121 287.178 818.121 270.509C818.121 255.447 812.497 237.774 794.623 237.975C775.946 237.975 771.327 256.853 771.327 270.509Z" fill="black"/>
<path d="M692.136 310.673V229.739C692.136 221.906 695.349 215.078 706.796 215.078C718.244 215.078 721.457 221.906 721.457 229.739V310.673C721.457 318.506 718.244 325.334 706.796 325.334C695.349 325.334 692.136 318.506 692.136 310.673Z" fill="black"/>
<path d="M691.533 189.975C691.533 181.54 698.361 174.712 706.796 174.712C715.231 174.712 722.059 181.54 722.059 189.975C722.059 198.41 715.231 205.238 706.796 205.238C698.361 205.238 691.533 198.41 691.533 189.975Z" fill="white"/>
<path d="M577.038 272.317C577.038 238.577 596.117 215.08 632.065 215.08C656.567 215.08 674.842 228.937 674.842 242.594C674.842 251.029 668.617 255.246 661.186 255.246C647.329 255.246 652.349 237.975 631.262 237.975C619.815 237.975 606.359 245.807 606.359 272.317C606.359 290.592 614.995 302.441 631.061 302.441C651.546 302.441 647.128 283.563 662.592 283.563C670.022 283.563 674.842 288.986 674.842 294.81C674.842 307.663 660.382 325.336 630.258 325.336C594.108 325.336 577.038 303.044 577.038 272.317Z" fill="black"/>
<path d="M469.17 272.317C469.17 238.577 488.249 215.08 524.197 215.08C548.699 215.08 566.974 228.937 566.974 242.594C566.974 251.029 560.749 255.246 553.318 255.246C539.461 255.246 544.481 237.975 523.394 237.975C511.947 237.975 498.491 245.807 498.491 272.317C498.491 290.592 507.127 302.441 523.193 302.441C543.678 302.441 539.26 283.563 554.724 283.563C562.154 283.563 566.974 288.986 566.974 294.81C566.974 307.663 552.515 325.336 522.39 325.336C486.24 325.336 469.17 303.044 469.17 272.317Z" fill="black"/>
<path d="M334.213 298.224L376.789 185.558C379.601 178.127 384.823 175.517 392.856 175.517H400.688C408.119 175.517 414.746 177.324 418.361 187.566L458.126 298.224C459.331 301.437 461.339 307.261 461.339 310.876C461.339 318.91 454.31 325.336 445.875 325.336C438.645 325.336 433.424 322.725 431.014 316.299L422.579 292.199H369.559L360.924 316.299C358.715 322.725 354.096 325.336 346.263 325.336C337.226 325.336 331 319.713 331 310.876C331 307.261 333.008 301.437 334.213 298.224ZM415.349 269.304L396.672 211.264H396.27L376.789 269.304H415.349Z" fill="black"/>
<path d="M726.319 136.737V54.7981C726.319 45.9615 732.144 41.1416 739.574 41.1416C747.005 41.1416 752.829 45.9615 752.829 54.7981V66.0446H753.231C756.645 53.7939 763.272 41.1416 777.531 41.1416C786.769 41.1416 793.598 47.1665 793.598 55.4006C793.598 66.2454 786.368 70.0612 779.138 70.0612H773.916C762.067 70.0612 755.641 78.2952 755.641 102.596V136.737C755.641 144.569 752.427 151.398 740.98 151.398C729.533 151.398 726.319 144.569 726.319 136.737Z" fill="black"/>
<path d="M699.342 71.2662V120.47C699.342 132.72 702.355 135.532 702.355 140.151C702.355 146.778 696.129 151.398 689.1 151.398C676.448 151.398 672.23 143.364 671.829 134.327C660.381 146.979 647.126 151.398 631.662 151.398C614.993 151.398 598.525 139.95 598.525 121.474C598.525 97.1733 617.002 90.3451 639.495 87.7343L657.369 85.726C664.398 84.9227 670.021 83.316 670.021 74.8811C670.021 66.4462 661.385 62.8313 651.545 62.8313C629.855 62.8313 629.252 78.8977 617.604 78.8977C610.174 78.8977 605.153 73.6761 605.153 67.6512C605.153 56.0031 621.621 41.1416 651.745 41.1416C679.862 41.1416 699.342 50.179 699.342 71.2662ZM670.021 110.83V99.3825C666.808 102.395 660.783 103.399 657.369 104.002L646.725 105.608C634.474 107.416 627.847 111.231 627.847 120.068C627.847 126.695 634.072 132.118 644.114 132.118C660.18 132.118 670.021 121.675 670.021 110.83Z" fill="black"/>
<path d="M456 76.4866C456 35.718 480.1 0.773438 526.692 0.773438C564.448 0.773438 585.134 24.4714 585.134 38.5296C585.134 47.7678 580.113 53.391 570.273 53.391C551.194 53.391 556.817 27.2831 526.692 27.2831C506.007 27.2831 488.936 45.157 488.936 76.4866C488.936 102.795 499.379 125.69 527.897 125.69C553.804 125.69 553.202 97.9754 569.068 97.9754C577.101 97.9754 585.134 102.595 585.134 110.628C585.134 131.514 559.829 152.2 527.897 152.2C482.71 152.2 456 126.293 456 76.4866Z" fill="black"/>
</svg>
