<svg width="1305" height="587" viewBox="0 0 1305 587" fill="none" xmlns="http://www.w3.org/2000/svg">
<path d="M107.544 64C116.633 64 124.069 71.436 124.069 80.5244C124.069 89.6128 116.633 97.0487 107.544 97.0487C98.4557 97.0487 91.0198 89.6128 91.0198 80.5244C91.0198 71.436 98.0426 64 107.544 64Z" fill="#33E5F5"/>
<path d="M86.0623 522.963C78.6263 522.963 71.6035 520.898 64.5806 516.767C40.2072 503.134 24.9222 466.781 22.0304 417.621C19.9649 382.919 24.5091 342.848 36.0761 303.189C17.4862 284.599 5.09293 261.465 1.37495 237.505C-6.06102 191.237 17.0731 141.251 60.8627 107.789C64.5806 104.897 69.5379 105.723 72.4297 109.441C75.3215 113.159 74.4953 118.116 70.7773 121.008C31.5319 150.752 10.8765 194.542 17.4862 235.026C20.378 253.203 28.6401 270.141 41.8596 285.426C58.7971 238.331 86.4754 193.715 126.547 164.385C164.966 136.293 235.195 107.376 264.939 135.467C281.463 151.165 286.42 186.693 277.332 225.938C267.004 270.967 236.434 325.497 181.491 342.435C143.898 354.002 99.2818 347.392 62.5151 324.258C57.9709 321.366 53.8398 318.474 50.1218 315.583C40.2072 350.284 36.4892 385.811 38.5548 416.381C41.0334 459.345 53.8398 491.567 72.8428 502.308C94.7376 515.114 119.111 494.459 163.314 453.561C209.169 411.837 271.961 354.415 366.15 320.54C540.482 258.16 692.093 304.842 825.941 346.153C963.919 388.703 1082.89 425.47 1205.17 349.044C1237.4 328.802 1265.9 301.537 1289.04 268.075C1291.51 264.357 1296.88 263.531 1300.6 266.01C1304.32 268.488 1305.15 273.859 1302.67 277.577C1277.88 312.691 1248.14 341.608 1213.85 363.09C1085.37 443.646 956.896 403.988 820.983 361.851C683.418 319.301 541.308 275.098 371.934 336.238C280.637 368.874 219.497 425.057 174.468 465.954C139.766 498.177 112.501 522.963 86.0623 522.963ZM54.666 298.232C59.6233 302.363 64.9937 306.494 70.7773 310.212C103.413 330.455 143.898 337.064 176.12 326.737C224.454 311.452 251.719 262.705 260.807 221.807C268.243 189.171 265.352 158.188 253.371 147.034C233.955 128.857 175.707 148.273 136.049 177.191C96.39 206.522 69.9511 251.138 54.666 298.232Z" fill="#33E5F5"/>
<path d="M620.174 141.07L597.543 67.4674C596.486 64.0834 595.428 60.6994 595.428 56.0463C595.428 48.0093 602.619 41.6643 610.445 41.6643C621.866 41.6643 623.558 47.7978 625.673 56.6808L641.958 124.361H642.381L655.495 62.8144C658.033 50.7588 660.571 41.2412 674.953 41.6643C689.546 41.2412 692.507 50.5473 695.257 62.8144L708.581 124.361H709.004L724.232 56.6808C726.136 47.7978 728.039 41.6643 739.46 41.6643C747.286 41.6643 754.477 48.0093 754.477 56.0463C754.477 60.6994 753.42 64.0834 752.362 67.4674L729.731 141.07C725.29 155.663 721.906 157.778 709.639 157.778C696.737 157.778 693.565 153.971 690.392 141.704L675.164 81.0035H674.741L659.513 141.704C656.341 153.971 653.168 157.778 640.266 157.778C627.999 157.778 624.615 155.663 620.174 141.07Z" fill="black"/>
<path d="M571.465 105.538H501.669C501.669 121.824 512.244 133.668 530.222 133.668C553.487 133.668 553.487 118.44 565.966 118.44C573.368 118.44 578.656 124.785 578.656 130.496C578.656 149.108 548.834 157.779 530.222 157.779C487.076 157.779 470.79 128.592 470.79 101.731C470.79 65.7762 492.575 41.665 529.164 41.665C564.697 41.665 585.001 66.8337 585.001 92.2138C585.001 102.789 581.828 105.538 571.465 105.538ZM501.669 87.7723H555.813C554.121 73.6017 543.546 63.2382 529.799 63.2382C514.359 63.2382 505.053 72.7557 501.669 87.7723Z" fill="black"/>
<path d="M314 141.071V20.3041C314 5.92203 320.98 0 335.785 0C342.976 0 349.321 2.74952 353.128 9.09454L413.829 107.02H414.252V16.7086C414.252 5.49903 420.597 0 430.96 0C441.324 0 447.669 5.49903 447.669 16.7086V136.207C447.669 149.954 441.747 157.78 427.153 157.78C416.155 157.78 412.56 155.453 408.118 148.474L347.84 53.2983H347.417V141.071C347.417 152.281 341.072 157.78 330.709 157.78C320.345 157.78 314 152.281 314 141.071Z" fill="black"/>
<path d="M1061.01 492.962H991.214C991.214 509.248 1001.79 521.092 1019.77 521.092C1043.03 521.092 1043.03 505.864 1055.51 505.864C1062.91 505.864 1068.2 512.209 1068.2 517.919C1068.2 536.531 1038.38 545.203 1019.77 545.203C976.621 545.203 960.335 516.016 960.335 489.155C960.335 453.2 982.12 429.089 1018.71 429.089C1054.24 429.089 1074.55 454.257 1074.55 479.638C1074.55 490.213 1071.37 492.962 1061.01 492.962ZM991.214 475.196H1045.36C1043.67 461.026 1033.09 450.662 1019.34 450.662C1003.9 450.662 994.598 460.18 991.214 475.196Z" fill="black"/>
<path d="M835.691 529.763V444.528C835.691 435.222 839.921 429.089 849.651 429.089C859.38 429.089 863.61 435.222 863.61 444.528V448.547H864.033C872.704 437.126 883.914 429.089 901.468 429.089C920.08 429.089 940.384 438.395 940.384 469.697V529.763C940.384 538.012 937 545.203 924.945 545.203C912.889 545.203 909.505 538.012 909.505 529.763V475.831C909.505 463.352 903.372 454.469 890.047 454.469C879.261 454.469 866.571 463.352 866.571 478.792V529.763C866.571 538.012 863.187 545.203 851.131 545.203C839.075 545.203 835.691 538.012 835.691 529.763Z" fill="black"/>
<path fill-rule="evenodd" clip-rule="evenodd" d="M778.518 444.527V529.761C778.518 538.01 781.902 545.201 793.958 545.201C806.013 545.201 809.397 538.01 809.397 529.761V444.527C809.397 436.278 806.013 429.087 793.958 429.087C781.902 429.087 778.518 436.278 778.518 444.527Z" fill="black"/>
<path d="M719.653 529.764V402.863C719.653 392.711 725.787 387.424 735.093 387.424C744.399 387.424 750.532 392.711 750.532 402.863V529.764C750.532 539.916 744.399 545.204 735.093 545.204C725.787 545.204 719.653 539.916 719.653 529.764Z" fill="black"/>
<path d="M588.665 570.795V443.682C588.665 434.165 593.106 429.089 602.624 429.089C611.718 429.089 616.583 434.165 616.583 443.682V448.547H617.006C622.082 435.434 634.561 429.089 649.577 429.089C675.38 429.089 698.011 447.912 698.011 487.886C698.011 517.496 682.994 545.203 650.423 545.203C636.253 545.203 625.678 539.492 619.967 529.552H619.544V570.795C619.544 580.947 613.41 586.234 604.104 586.234C594.798 586.234 588.665 580.947 588.665 570.795ZM667.132 486.829C667.132 468.64 659.095 453.623 642.598 453.2C624.62 453.2 617.852 469.274 617.852 486.829C617.852 502.691 623.774 521.303 642.598 521.092C662.267 521.092 667.132 501.211 667.132 486.829Z" fill="black"/>
<path d="M531.492 529.764V402.863C531.492 392.711 537.625 387.424 546.931 387.424C556.237 387.424 562.371 392.711 562.371 402.863V529.764C562.371 539.916 556.237 545.204 546.931 545.204C537.625 545.204 531.492 539.916 531.492 529.764Z" fill="black"/>
<path d="M496.318 492.962H426.523C426.523 509.248 437.098 521.092 455.075 521.092C478.341 521.092 478.341 505.864 490.819 505.864C498.222 505.864 503.509 512.209 503.509 517.919C503.509 536.531 473.687 545.203 455.075 545.203C411.929 545.203 395.644 516.016 395.644 489.155C395.644 453.2 417.428 429.089 454.018 429.089C489.55 429.089 509.854 454.257 509.854 479.638C509.854 490.213 506.682 492.962 496.318 492.962ZM426.523 475.196H480.667C478.975 461.026 468.4 450.662 454.652 450.662C439.213 450.662 429.907 460.18 426.523 475.196Z" fill="black"/>
<path d="M271 529.764V402.863C271 392.711 277.134 387.424 286.44 387.424C295.746 387.424 301.879 392.711 301.879 402.863V445.375H302.302C308.436 437.338 319.222 429.09 336.777 429.09C355.389 429.09 375.693 438.396 375.693 469.698V529.764C375.693 538.013 372.309 545.204 360.253 545.204C348.198 545.204 344.814 538.013 344.814 529.764V475.831C344.814 463.353 338.68 454.47 325.356 454.47C314.569 454.47 301.879 463.353 301.879 478.792V529.764C301.879 538.013 298.495 545.204 286.44 545.204C274.384 545.204 271 538.013 271 529.764Z" fill="black"/>
<path d="M778.546 402.263C778.546 393.828 785.374 387 793.809 387C802.244 387 809.072 393.828 809.072 402.263C809.072 410.698 802.244 417.526 793.809 417.526C785.374 417.526 778.546 410.698 778.546 402.263Z" fill="#33E5F5"/>
<path d="M1026.66 268.986C1026.66 243.818 1051.62 234.512 1072.98 234.512C1096.45 234.512 1120.14 243.818 1120.14 257.988C1120.14 265.179 1115.28 271.524 1107.24 271.524C1095.19 271.524 1094.76 257.354 1075.3 257.354C1064.52 257.354 1057.54 260.315 1057.54 266.871C1057.54 274.062 1064.52 275.754 1074.04 277.869L1086.94 280.83C1104.49 284.849 1125.43 292.252 1125.43 313.825C1125.43 338.993 1101.11 350.626 1077.84 350.626C1049.92 350.626 1026.66 338.147 1026.66 322.919C1026.66 316.151 1030.47 310.018 1039.14 310.018C1052.46 310.018 1053.73 329.053 1076.57 329.053C1087.57 329.053 1094.55 324.188 1094.55 317.843C1094.55 310.018 1087.78 308.749 1076.79 305.999L1058.6 301.558C1040.62 297.116 1026.66 289.714 1026.66 268.986Z" fill="black"/>
<path d="M835.72 335.186V249.951C835.72 240.645 841.22 234.512 850.314 234.512C859.409 234.512 864.908 240.645 864.908 249.951V253.97H865.331C873.368 241.703 886.904 234.512 902.555 234.512C913.13 234.512 926.454 239.376 932.165 253.97C940.837 241.914 951.835 234.512 968.543 234.512C989.905 234.512 1007.04 244.241 1007.04 271.947V335.186C1007.04 343.435 1003.65 350.626 991.597 350.626C979.541 350.626 976.157 343.435 976.157 335.186V279.773C976.157 268.775 971.293 259.892 959.237 259.892C947.393 259.892 936.818 269.409 936.818 283.791V335.186C936.818 343.435 933.434 350.626 921.378 350.626C909.323 350.626 905.939 343.435 905.939 335.186V279.773C905.939 268.775 901.074 259.892 889.019 259.892C877.175 259.892 866.6 269.409 866.6 283.791V335.186C866.6 343.435 863.216 350.626 851.16 350.626C839.104 350.626 835.72 343.435 835.72 335.186Z" fill="black"/>
<path fill-rule="evenodd" clip-rule="evenodd" d="M778.547 249.951V335.186C778.547 343.435 781.931 350.626 793.987 350.626C806.042 350.626 809.426 343.435 809.426 335.186V249.951C809.426 241.703 806.042 234.512 793.987 234.512C781.931 234.512 778.547 241.703 778.547 249.951Z" fill="black"/>
<path d="M750.137 266.237V318.055C750.137 330.956 753.309 333.917 753.309 338.782C753.309 345.761 746.753 350.626 739.35 350.626C726.026 350.626 721.584 342.166 721.161 332.648C709.105 345.973 695.146 350.626 678.861 350.626C661.306 350.626 643.963 338.57 643.963 319.112C643.963 293.521 663.421 286.33 687.109 283.58L705.933 281.465C713.336 280.619 719.258 278.927 719.258 270.044C719.258 261.161 710.163 257.354 699.799 257.354C676.957 257.354 676.323 274.274 664.056 274.274C656.23 274.274 650.943 268.775 650.943 262.43C650.943 250.163 668.286 234.512 700.011 234.512C729.621 234.512 750.137 244.029 750.137 266.237ZM719.258 307.903V295.847C715.874 299.02 709.528 300.077 705.933 300.712L694.723 302.404C681.822 304.307 674.842 308.326 674.842 317.632C674.842 324.611 681.399 330.322 691.974 330.322C708.894 330.322 719.258 319.324 719.258 307.903Z" fill="black"/>
<path d="M590.386 335.187V208.286C590.386 198.134 596.519 192.847 605.825 192.847C615.131 192.847 621.265 198.134 621.265 208.286V335.187C621.265 345.339 615.131 350.627 605.825 350.627C596.519 350.627 590.386 345.339 590.386 335.187Z" fill="black"/>
<path d="M435 271.736C435 228.801 460.38 192 509.448 192C549.211 192 570.995 216.957 570.995 231.762C570.995 241.491 565.708 247.413 555.344 247.413C535.252 247.413 541.174 219.918 509.448 219.918C487.664 219.918 469.686 238.742 469.686 271.736C469.686 299.443 480.684 323.554 510.717 323.554C538.001 323.554 537.367 294.367 554.075 294.367C562.535 294.367 570.995 299.231 570.995 307.691C570.995 329.687 544.346 351.472 510.717 351.472C463.13 351.472 435 324.188 435 271.736Z" fill="black"/>
<path d="M778.603 208.398C778.603 199.963 785.432 193.135 793.866 193.135C802.301 193.135 809.13 199.963 809.13 208.398C809.13 216.833 802.301 223.661 793.866 223.661C785.432 223.661 778.603 216.833 778.603 208.398Z" fill="#33E5F5"/>
</svg>
