<svg width="167" height="77" viewBox="0 0 167 77" fill="none" xmlns="http://www.w3.org/2000/svg">
<path d="M13.7054 4.58057C14.8636 4.58057 15.8113 5.52819 15.8113 6.6864C15.8113 7.8446 14.8636 8.79223 13.7054 8.79223C12.5472 8.79223 11.5996 7.8446 11.5996 6.6864C11.5996 5.52819 12.4946 4.58057 13.7054 4.58057Z" fill="#33E5F5"/>
<path d="M10.9676 63.0701C10.02 63.0701 9.125 62.8068 8.23002 62.2804C5.12392 60.5431 3.17603 55.9102 2.80751 49.6454C2.54428 45.2231 3.12338 40.1165 4.59747 35.0625C2.22841 32.6934 0.649032 29.7453 0.17522 26.6918C-0.772403 20.7955 2.17576 14.4254 7.75621 10.1611C8.23002 9.79254 8.86177 9.89783 9.23029 10.3716C9.59881 10.8455 9.49352 11.4772 9.01971 11.8457C4.01836 15.6362 1.38607 21.2167 2.22841 26.376C2.59693 28.6924 3.64984 30.8508 5.33451 32.7987C7.49298 26.7971 11.0202 21.1114 16.1269 17.3735C21.0229 13.7936 29.9727 10.1084 33.7632 13.6883C35.869 15.6889 36.5008 20.2164 35.3426 25.2177C34.0264 30.9561 30.1307 37.9054 23.1288 40.0639C18.338 41.5379 12.6523 40.6956 7.96679 37.7474C7.38769 37.3789 6.86123 37.0104 6.38742 36.6419C5.12392 41.0641 4.65011 45.5917 4.91334 49.4874C5.22921 54.9626 6.86123 59.069 9.28294 60.4378C12.0732 62.0698 15.1793 59.4375 20.8124 54.2256C26.656 48.9083 34.6582 41.5906 46.6614 37.2736C68.8779 29.3241 88.1989 35.2731 105.256 40.5377C122.84 45.9602 138.002 50.6456 153.585 40.9062C157.691 38.3265 161.324 34.8519 164.272 30.5876C164.588 30.1138 165.272 30.0085 165.746 30.3244C166.22 30.6403 166.325 31.3247 166.009 31.7985C162.851 36.2734 159.06 39.9586 154.691 42.6961C138.318 52.9621 121.945 47.9081 104.624 42.5382C87.0934 37.1157 68.9832 31.4826 47.3985 39.2742C35.7638 43.4332 27.9722 50.593 22.2338 55.8049C17.8116 59.9113 14.3369 63.0701 10.9676 63.0701ZM6.96652 34.4308C7.59827 34.9572 8.28267 35.4837 9.01971 35.9575C13.1787 38.5371 18.338 39.3795 22.4444 38.0633C28.6039 36.1154 32.0786 29.9032 33.2368 24.6913C34.1844 20.5323 33.8159 16.5838 32.2891 15.1624C29.8148 12.846 22.3917 15.3203 17.3377 19.0055C12.2837 22.7434 8.91442 28.4291 6.96652 34.4308Z" fill="#33E5F5"/>
<path d="M43.3447 1.5269C43.7133 0.473989 44.4503 0.105469 45.5559 0.105469H46.6614C47.7143 0.105469 48.6093 0.368698 49.1358 1.79013L54.6636 17.1627C54.8215 17.5839 55.0848 18.4262 55.0848 18.9C55.0848 20.0056 54.0845 20.9005 52.9263 20.9005C51.926 20.9005 51.189 20.532 50.8731 19.637L49.7149 16.3204H42.3445L41.1336 19.6897C40.8177 20.5847 40.186 20.9532 39.0804 20.9532C37.8169 20.9532 36.9746 20.1635 36.9746 18.9527C36.9746 18.4262 37.2378 17.6365 37.3958 17.2153L43.3447 1.5269ZM46.135 5.05417H46.0823L43.3447 13.1616H48.7146L46.135 5.05417Z" fill="black"/>
<path d="M63.824 5.6333C67.246 5.6333 69.773 7.58119 69.773 9.47644C69.773 10.6346 68.9306 11.2138 67.8777 11.2138C65.9298 11.2138 66.6668 8.79205 63.7187 8.79205C62.1393 8.79205 60.2441 9.89761 60.2441 13.5828C60.2441 16.1098 61.4549 17.7945 63.666 17.7945C66.5089 17.7945 65.8772 15.1622 68.0356 15.1622C69.0886 15.1622 69.7203 15.8992 69.7203 16.7416C69.7203 18.5315 67.7198 21.0059 63.5081 21.0059C58.5068 21.0059 56.1377 17.8998 56.1377 13.6355C56.1903 8.89734 58.8753 5.6333 63.824 5.6333Z" fill="black"/>
<path d="M78.8279 5.6333C82.2499 5.6333 84.7769 7.58119 84.7769 9.47644C84.7769 10.6346 83.9345 11.2138 82.8816 11.2138C80.9337 11.2138 81.6708 8.79205 78.7226 8.79205C77.1432 8.79205 75.248 9.89761 75.248 13.5828C75.248 16.1098 76.4588 17.7945 78.6699 17.7945C81.5128 17.7945 80.8811 15.1622 83.0395 15.1622C84.0925 15.1622 84.7242 15.8992 84.7242 16.7416C84.7242 18.5315 82.7237 21.0059 78.512 21.0059C73.5107 21.0059 71.1416 17.8998 71.1416 13.6355C71.1942 8.89734 73.8265 5.6333 78.8279 5.6333Z" fill="black"/>
<path d="M89.1996 0C90.3578 0 91.3054 0.947624 91.3054 2.10583C91.3054 3.26404 90.3578 4.21166 89.1996 4.21166C88.0414 4.21166 87.0938 3.26404 87.0938 2.10583C87.0938 0.947624 88.0414 0 89.1996 0Z" fill="#33E5F5"/>
<path d="M87.1982 7.63375C87.1982 6.52819 87.6194 5.58057 89.2514 5.58057C90.8835 5.58057 91.3046 6.52819 91.3046 7.63375V18.8999C91.3046 20.0055 90.8835 20.9531 89.2514 20.9531C87.6194 20.9531 87.1982 20.0055 87.1982 18.8999V7.63375Z" fill="black"/>
<path d="M108.521 19.0053C108.521 20.2688 107.942 20.9532 106.678 20.9532C105.467 20.9532 104.835 20.2688 104.835 19.0053V18.3736H104.783C104.098 20.1109 102.466 20.9532 100.466 20.9532C97.0439 20.9532 94.0957 18.4788 94.0957 13.2143C94.0957 9.31848 96.0962 5.63327 100.361 5.63327C102.151 5.63327 103.572 6.37032 104.362 7.68646H104.414V2.15865C104.414 0.842509 105.204 0.105469 106.467 0.105469C107.731 0.105469 108.521 0.789864 108.521 2.15865V19.0053ZM101.413 17.7418C103.783 17.7418 104.677 15.636 104.677 13.3196C104.677 11.2137 103.888 8.79202 101.413 8.79202C98.8338 8.79202 98.2021 11.4243 98.2021 13.3196C98.1494 15.6886 99.255 17.6892 101.413 17.7418Z" fill="black"/>
<path d="M115.206 14.0566C115.206 16.2151 116.628 17.7945 118.997 17.7945C122.05 17.7945 122.05 15.7939 123.735 15.7939C124.735 15.7939 125.419 16.6363 125.419 17.3733C125.419 19.8477 121.471 20.9532 119.049 20.9532C113.364 20.9532 111.205 17.1101 111.205 13.5828C111.205 8.84469 114.101 5.6333 118.891 5.6333C123.577 5.6333 126.262 8.94998 126.262 12.3193C126.262 13.7407 125.841 14.0566 124.472 14.0566H115.206ZM122.366 11.6876C122.155 9.79232 120.734 8.47617 118.944 8.47617C116.891 8.47617 115.68 9.73967 115.206 11.6876H122.366Z" fill="black"/>
<path d="M128.842 7.63375C128.842 6.4229 129.421 5.58057 130.684 5.58057C131.948 5.58057 132.527 6.37025 132.527 7.63375V8.16021H132.58C133.738 6.63348 135.212 5.58057 137.528 5.58057C140.003 5.58057 142.688 6.79142 142.688 10.9504V18.8999C142.688 20.0055 142.266 20.9531 140.634 20.9531C139.002 20.9531 138.581 20.0055 138.581 18.8999V11.7928C138.581 10.1607 137.791 8.9499 136.002 8.9499C134.58 8.9499 132.895 10.1081 132.895 12.1613V18.8999C132.895 20.0055 132.474 20.9531 130.842 20.9531C129.21 20.9531 128.789 20.0055 128.789 18.8999V7.63375H128.842Z" fill="black"/>
<path d="M146.951 8.63386H146.267C145.109 8.63386 144.635 8.21269 144.635 7.31771C144.635 6.42273 145.109 6.00157 146.267 6.00157H146.951V3.47457C146.951 2.15843 147.741 1.42139 149.004 1.42139C150.268 1.42139 151.058 2.10578 151.058 3.47457V5.94892H152.268C153.479 5.94892 154.111 6.31744 154.111 7.26507C154.111 8.26534 153.479 8.58121 152.268 8.58121H151.058V16.7413C151.058 17.3731 151.373 17.6889 152.11 17.6889H152.69C153.585 17.6889 154.111 18.2154 154.111 19.0577C154.111 20.2159 153.111 20.8477 151.163 20.8477C148.215 20.8477 146.951 19.6368 146.951 17.2151V8.63386Z" fill="black"/>
<path d="M66.667 25.1646C71.9316 25.1646 74.7745 28.4812 74.7745 30.4291C74.7745 31.6926 74.0901 32.4823 72.7213 32.4823C70.089 32.4823 70.826 28.8498 66.667 28.8498C63.7715 28.8498 61.4024 31.3241 61.4024 35.6937C61.4024 39.3263 62.8765 42.5377 66.825 42.5377C70.4049 42.5377 70.3522 38.6945 72.5633 38.6945C73.6689 38.6945 74.7745 39.3263 74.7745 40.4318C74.7745 43.3273 71.2472 46.2229 66.825 46.2229C60.5601 46.2229 56.8223 42.6429 56.8223 35.6937C56.8223 30.008 60.1916 25.1646 66.667 25.1646Z" fill="black"/>
<path d="M77.3545 27.3232C77.3545 26.0071 78.1442 25.27 79.4077 25.27C80.6712 25.27 81.4609 25.9544 81.4609 27.3232V44.0646C81.4609 45.3807 80.6712 46.1177 79.4077 46.1177C78.1442 46.1177 77.3545 45.4333 77.3545 44.0646V27.3232Z" fill="black"/>
<path d="M98.412 41.8007C98.412 43.4854 98.8331 43.9066 98.8331 44.5383C98.8331 45.4333 97.9908 46.1177 96.9905 46.1177C95.2532 46.1177 94.6215 45.0121 94.5688 43.7486C92.9895 45.4859 91.1469 46.1177 88.9884 46.1177C86.672 46.1177 84.4082 44.5383 84.4082 41.9587C84.4082 38.5893 86.9878 37.6417 90.0939 37.2732L92.5683 37.01C93.5686 36.9047 94.3056 36.6941 94.3056 35.4832C94.3056 34.325 93.0948 33.7986 91.726 33.7986C88.7252 33.7986 88.6199 36.0097 86.9879 36.0097C85.9349 36.0097 85.2505 35.2727 85.2505 34.4303C85.2505 32.7983 87.5143 30.7451 91.726 30.7451C95.6218 30.7451 98.3593 32.0086 98.3593 34.9568V41.8007H98.412ZM94.3583 38.8526C93.9371 39.2737 93.0948 39.4317 92.6209 39.4843L91.1469 39.6949C89.4622 39.9581 88.5146 40.4846 88.5146 41.6954C88.5146 42.5904 89.3569 43.3801 90.7783 43.3801C92.9895 43.3801 94.3583 41.906 94.3583 40.4319V38.8526Z" fill="black"/>
<path d="M104.203 25.1646C105.362 25.1646 106.309 26.1122 106.309 27.2704C106.309 28.4286 105.362 29.3762 104.203 29.3762C103.045 29.3762 102.098 28.4286 102.098 27.2704C102.098 26.1122 103.045 25.1646 104.203 25.1646Z" fill="#33E5F5"/>
<path d="M102.15 32.7983C102.15 31.6927 102.572 30.7451 104.204 30.7451C105.836 30.7451 106.257 31.6927 106.257 32.7983V44.0645C106.257 45.1701 105.836 46.1177 104.204 46.1177C102.572 46.1177 102.15 45.1701 102.15 44.0645V32.7983Z" fill="black"/>
<path d="M109.679 32.7983C109.679 31.5874 110.416 30.7451 111.627 30.7451C112.837 30.7451 113.574 31.5348 113.574 32.7983V33.3248H113.627C114.68 31.6927 116.47 30.7451 118.523 30.7451C119.945 30.7451 121.682 31.3769 122.419 33.3248C123.577 31.7454 124.999 30.7451 127.21 30.7451C130.053 30.7451 132.264 32.0086 132.264 35.6938V44.0118C132.264 45.1174 131.842 46.065 130.21 46.065C128.578 46.065 128.157 45.1174 128.157 44.0118V36.7467C128.157 35.2727 127.526 34.1144 125.946 34.1144C124.367 34.1144 122.998 35.3779 122.998 37.2732V44.0645C122.998 45.1701 122.577 46.1177 120.945 46.1177C119.313 46.1177 118.892 45.1701 118.892 44.0645V36.7467C118.892 35.2727 118.26 34.1144 116.681 34.1144C115.101 34.1144 113.732 35.3779 113.732 37.2732V44.0645C113.732 45.1701 113.311 46.1177 111.679 46.1177C110.047 46.1177 109.626 45.1701 109.626 44.0645V32.7983H109.679Z" fill="black"/>
<path d="M141.003 30.7451C144.109 30.7451 147.215 31.956 147.215 33.8512C147.215 34.7988 146.584 35.6412 145.531 35.6412C143.951 35.6412 143.899 33.7459 141.319 33.7459C139.898 33.7459 138.95 34.1144 138.95 35.0094C138.95 35.957 139.898 36.1676 141.109 36.4835L142.793 36.852C145.11 37.3785 147.847 38.3788 147.847 41.2216C147.847 44.5383 144.636 46.065 141.582 46.065C137.897 46.065 134.844 44.433 134.844 42.4325C134.844 41.5375 135.37 40.7478 136.476 40.7478C138.213 40.7478 138.424 43.2748 141.424 43.2748C142.898 43.2748 143.793 42.6431 143.793 41.8007C143.793 40.7478 142.898 40.5899 141.424 40.2214L139.003 39.6423C136.634 39.0631 134.791 38.0629 134.791 35.3253C134.896 32.0086 138.213 30.7451 141.003 30.7451Z" fill="black"/>
<path d="M43.7656 52.6988C43.7656 51.33 44.6606 50.4351 46.0294 50.4351C47.3982 50.4351 48.2932 51.33 48.2932 52.6988V58.3846H56.6112V52.6988C56.6112 51.33 57.5062 50.4351 58.875 50.4351C60.2438 50.4351 61.1387 51.33 61.1387 52.6988V68.9664C61.1387 70.3352 60.2438 71.2301 58.875 71.2301C57.5062 71.2301 56.6112 70.2825 56.6112 68.9664V62.2804H48.3458V68.9664C48.3458 70.3352 47.4508 71.2301 46.082 71.2301C44.7132 71.2301 43.8183 70.2825 43.8183 68.9664V52.6988H43.7656Z" fill="black"/>
<path d="M68.4562 64.3335C68.4562 66.492 69.8776 68.0713 72.2467 68.0713C75.3001 68.0713 75.3001 66.0708 76.9848 66.0708C77.985 66.0708 78.6694 66.9131 78.6694 67.6502C78.6694 70.1245 74.721 71.2301 72.2993 71.2301C66.6136 71.2301 64.4551 67.3869 64.4551 63.8597C64.4551 59.1216 67.3506 55.9102 72.1414 55.9102C76.8268 55.9102 79.5118 59.2268 79.5118 62.5962C79.5118 64.0176 79.0906 64.3335 77.7218 64.3335H68.4562ZM75.616 62.0171C75.4054 60.1218 73.984 58.8057 72.194 58.8057C70.1408 58.8057 68.93 60.0692 68.4562 62.0171H75.616Z" fill="black"/>
<path d="M82.3027 52.4355C82.3027 51.1194 83.0924 50.3823 84.3559 50.3823C85.6194 50.3823 86.4091 51.0667 86.4091 52.4355V69.1769C86.4091 70.493 85.6194 71.2301 84.3559 71.2301C83.0924 71.2301 82.3027 70.5457 82.3027 69.1769V52.4355Z" fill="black"/>
<path d="M89.8311 57.8581C89.8311 56.5946 90.4102 55.9102 91.6737 55.9102C92.8845 55.9102 93.5163 56.5946 93.5163 57.8581V58.4898H93.5689C94.2533 56.7525 95.8853 55.9102 97.8859 55.9102C101.308 55.9102 104.256 58.3845 104.256 63.6491C104.256 67.5449 102.255 71.2301 97.9911 71.2301C96.0959 71.2301 94.7271 70.493 93.9901 69.1769H93.9374V74.5994C93.9374 75.9155 93.1477 76.6526 91.8842 76.6526C90.6734 76.6526 89.8311 75.9682 89.8311 74.5994V57.8581ZM96.9382 59.1216C94.5692 59.1216 93.6742 61.2274 93.6742 63.5438C93.6742 65.6496 94.4639 68.0713 96.9382 68.0713C99.5179 68.0713 100.202 65.439 100.202 63.5438C100.202 61.1221 99.0967 59.1742 96.9382 59.1216Z" fill="black"/>
<path d="M107.099 52.4355C107.099 51.1194 107.888 50.3823 109.152 50.3823C110.415 50.3823 111.205 51.0667 111.205 52.4355V69.1769C111.205 70.493 110.415 71.2301 109.152 71.2301C107.888 71.2301 107.099 70.5457 107.099 69.1769V52.4355Z" fill="black"/>
<path d="M116.891 50.3296C118.049 50.3296 118.997 51.2772 118.997 52.4354C118.997 53.5936 118.049 54.5413 116.891 54.5413C115.733 54.5413 114.785 53.5936 114.785 52.4354C114.785 51.2772 115.733 50.3296 116.891 50.3296Z" fill="#33E5F5"/>
<path d="M114.838 57.9633C114.838 56.8578 115.259 55.9102 116.891 55.9102C118.523 55.9102 118.944 56.8578 118.944 57.9633V69.2295C118.944 70.3351 118.523 71.2827 116.891 71.2827C115.259 71.2827 114.838 70.3351 114.838 69.2295V57.9633Z" fill="black"/>
<path d="M122.419 57.9633C122.419 56.7525 122.998 55.9102 124.261 55.9102C125.525 55.9102 126.104 56.6998 126.104 57.9633V58.4898H126.157C127.315 56.9631 128.789 55.9102 131.105 55.9102C133.58 55.9102 136.265 57.121 136.265 61.28V69.2295C136.265 70.3351 135.844 71.2827 134.212 71.2827C132.579 71.2827 132.158 70.3351 132.158 69.2295V62.1224C132.158 60.4903 131.369 59.2795 129.579 59.2795C128.157 59.2795 126.473 60.4377 126.473 62.4909V69.2295C126.473 70.3351 126.051 71.2827 124.419 71.2827C122.787 71.2827 122.366 70.3351 122.366 69.2295V57.9633H122.419Z" fill="black"/>
<path d="M142.898 64.3335C142.898 66.492 144.319 68.0713 146.688 68.0713C149.742 68.0713 149.742 66.0708 151.426 66.0708C152.426 66.0708 153.111 66.9131 153.111 67.6502C153.111 70.1245 149.162 71.2301 146.741 71.2301C141.055 71.2301 138.896 67.3869 138.896 63.8597C138.896 59.1216 141.792 55.9102 146.583 55.9102C151.268 55.9102 153.953 59.2268 153.953 62.5962C153.953 64.0176 153.532 64.3335 152.163 64.3335H142.898ZM150.057 62.0171C149.847 60.1218 148.425 58.8057 146.635 58.8057C144.582 58.8057 143.371 60.0692 142.898 62.0171H150.057Z" fill="black"/>
</svg>
